<svg version="1.2" xmlns="http://www.w3.org/2000/svg" viewBox="0 0 750 500" width="750" height="500">
	<title>5533090-ai</title>
	<style>
		tspan { white-space:pre } 
		.s0 { fill: #fe6664 } 
		.s1 { fill: #f2cdd2 } 
		.s2 { fill: #ace9db } 
		.s3 { fill: #355e8f } 
		.s4 { fill: #3c6493 } 
		.s5 { fill: #a5e6d8 } 
		.s6 { fill: #fe6e6c } 
		.s7 { fill: #baede1 } 
		.s8 { fill: #bdede2 } 
		.s9 { fill: #fe6967 } 
		.s10 { fill: #fe7e7c } 
		.s11 { fill: #396191 } 
		.s12 { fill: #a7e8d9 } 
		.s13 { fill: #abe9db } 
		.s14 { fill: #386091 } 
		.s15 { fill: #fe6c6a } 
		.s16 { fill: #f1cbd0 } 
		.s17 { fill: #aae8da } 
		.s18 { fill: #3f6695 } 
		.s19 { fill: #b2ebde } 
		.s20 { fill: #fe7775 } 
		.s21 { fill: #a7e7d9 } 
		.s22 { fill: #fe6968 } 
		.s23 { fill: #a6e7d8 } 
		.s24 { fill: #a8e7d9 } 
		.s25 { fill: #f1ccd1 } 
		.s26 { fill: #fe706e } 
		.s27 { fill: #3d6594 } 
		.s28 { fill: #a8e8da } 
		.s29 { fill: #f2ccd1 } 
		.s30 { fill: #3b6392 } 
		.s31 { fill: #fe8c8a } 
		.s32 { fill: #fe6b69 } 
		.s33 { fill: #3c6393 } 
		.s34 { fill: #386191 } 
		.s35 { fill: #fd6968 } 
		.s36 { fill: #406795 } 
		.s37 { fill: #ade9dc } 
		.s38 { fill: #f2d0d4 } 
		.s39 { fill: #fe8887 } 
		.s40 { fill: #fe6f6d } 
		.s41 { fill: #fe7876 } 
		.s42 { fill: #3b6393 } 
		.s43 { fill: #fe7674 } 
		.s44 { fill: #fe716f } 
		.s45 { fill: #a6e6d8 } 
		.s46 { fill: #c4efe5 } 
		.s47 { fill: #f2ced3 } 
		.s48 { fill: #436a97 } 
		.s49 { fill: #fe7270 } 
		.s50 { fill: #f87270 } 
		.s51 { fill: #ace9dc } 
		.s52 { fill: #446a97 } 
		.s53 { fill: #fe7573 } 
		.s54 { fill: #fe7574 } 
		.s55 { fill: #abe8da } 
		.s56 { fill: #4c709c } 
		.s57 { fill: #3d6493 } 
		.s58 { fill: #456b98 } 
		.s59 { fill: #a9e8da } 
		.s60 { fill: #f2ced2 } 
		.s61 { fill: #466b98 } 
		.s62 { fill: #4a6f9b } 
		.s63 { fill: #f5dbde } 
		.s64 { fill: #fe7a78 } 
		.s65 { fill: #fe9b9a } 
		.s66 { fill: #fe9594 } 
		.s67 { fill: #3a6292 } 
		.s68 { fill: #f6dee2 } 
		.s69 { fill: #fe8280 } 
		.s70 { fill: #b5ebdf } 
		.s71 { fill: #b8ece0 } 
		.s72 { fill: #fe9c9b } 
		.s73 { fill: #50749e } 
		.s74 { fill: #fe807e } 
		.s75 { fill: #4f739e } 
		.s76 { fill: #52759f } 
		.s77 { fill: #c1eee4 } 
		.s78 { fill: #feb2b1 } 
		.s79 { fill: #fe8987 } 
		.s80 { fill: #fe9897 } 
		.s81 { fill: #496e9a } 
		.s82 { fill: #fe8a88 } 
		.s83 { fill: #fe8f8d } 
		.s84 { fill: #53769f } 
		.s85 { fill: #fe8685 } 
		.s86 { fill: #feaba9 } 
		.s87 { fill: #fe7170 } 
		.s88 { fill: #fe9e9d } 
		.s89 { fill: #fea4a3 } 
		.s90 { fill: #fe9997 } 
		.s91 { fill: #b3eade } 
		.s92 { fill: #6f8caf } 
		.s93 { fill: #6383a9 } 
		.s94 { fill: #fe817f } 
		.s95 { fill: #fe9998 } 
		.s96 { fill: #feb8b7 } 
		.s97 { fill: #fe8d8c } 
		.s98 { fill: #5c7da4 } 
		.s99 { fill: #c6efe6 } 
		.s100 { fill: #fe8e8d } 
		.s101 { fill: #4b709b } 
		.s102 { fill: #fcfcfc } 
		.s103 { fill: #5b7da4 } 
		.s104 { fill: #587aa2 } 
		.s105 { fill: #fe8a89 } 
		.s106 { fill: #fe8e8c } 
		.s107 { fill: #feb3b2 } 
		.s108 { fill: #6d8bae } 
		.s109 { fill: #feadac } 
		.s110 { fill: #fe9391 } 
		.s111 { fill: #beede3 } 
		.s112 { fill: #fe8483 } 
		.s113 { fill: #fea1a0 } 
		.s114 { fill: #708db0 } 
		.s115 { fill: #fea6a5 } 
		.s116 { fill: #fe9695 } 
		.s117 { fill: #fea4a2 } 
		.s118 { fill: #6483a9 } 
		.s119 { fill: #febab9 } 
		.s120 { fill: #fe9392 } 
		.s121 { fill: #fe8482 } 
		.s122 { fill: #feaaa9 } 
		.s123 { fill: #fe9493 } 
		.s124 { fill: #a8bacf } 
		.s125 { fill: #fe8c8b } 
		.s126 { fill: #d1f2eb } 
		.s127 { fill: #7893b4 } 
		.s128 { fill: #6786ab } 
		.s129 { fill: #fea9a8 } 
		.s130 { fill: #cdf1e9 } 
		.s131 { fill: #fe9796 } 
		.s132 { fill: #97acc6 } 
		.s133 { fill: #6e8bae } 
		.s134 { fill: #5578a1 } 
		.s135 { fill: #6887ab } 
		.s136 { fill: #87a0bc } 
		.s137 { fill: #fe9896 } 
		.s138 { fill: #fe908e } 
		.s139 { fill: #febebd } 
		.s140 { fill: #fe9f9e } 
		.s141 { fill: #feb4b3 } 
		.s142 { fill: #9aafc7 } 
		.s143 { fill: #95abc4 } 
		.s144 { fill: #fed9d8 } 
		.s145 { fill: #6685aa } 
		.s146 { fill: #fe8785 } 
		.s147 { fill: #6e8caf } 
		.s148 { fill: #feaead } 
		.s149 { fill: #8ea5c0 } 
		.s150 { fill: #d5dee7 } 
		.s151 { fill: #fe8786 } 
		.s152 { fill: #849dbb } 
		.s153 { fill: #b0c0d3 } 
		.s154 { fill: #6c8aad } 
		.s155 { fill: #ebeff4 } 
		.s156 { fill: #8ca4bf } 
	</style>
	<g id="BACKGROUND">
		<g id="&lt;Group&gt;">
			<path id="&lt;Path&gt;" class="s0" d="m489.3 311c-1.1-0.7-1.4 0.4-1.8 1c-0.4 0.5-0.7 0.8-1.3 0.6c-0.7-0.3-0.7-0.9-0.4-1.5c0.2-0.5 0.1-1.1 0.4-1.4c0.9-1 0.1-1.4-0.6-1.7c-0.8-0.2-1.3-0.9-1.1-1.5c0.2-0.9 0.9-0.3 1.5-0.2q1.4 0.2 1.3-1.2c0-0.6 0-1.1 0.1-1.7c0.1-0.4 0.1-1 0.8-1.1c0.7-0.1 0.9 0.5 0.9 1c0 2.4 1.1 2.7 3 1.7c0.6-0.3 0.9 0.1 1.1 0.4c0.2 0.4 0.2 0.9-0.3 1.2c-2.1 1-2 2.5-1.2 4.3c0.3 0.5 0.4 1-0.1 1.3c-0.6 0.3-1.1 0.3-1.3-0.5c-0.2-0.4-0.6-0.6-1-0.7z" />
			<path id="&lt;Path&gt;" class="s1" d="m599.3 134c0.4-0.6 1.2-0.9 1.3-1.7c-0.4-0.4-1.7-0.3-0.6-1.4c0.3-0.3-0.2-0.6-0.4-1q-1-1.3-2.1-2.7c-0.2-0.2-0.3-0.5 0-0.7c0.2-0.3 0.5 0 0.7 0.2c0.7 0.8 1.5 1.7 2.3 2.7c0.2-1.2 0.3-2.2 0.5-3.3c0-0.4 0-0.8 0.6-0.7c0.4 0.1 0.3 0.5 0.2 0.8c0 1.5-0.5 3 0.3 4.5c1.2-0.7 2-1.8 3-2.7c0.2-0.2 0.5-0.5 0.8-0.2c0.4 0.4 0.1 0.6-0.1 0.9q-1.1 1.2-2.2 2.4c0.1 0.1 0.2 0.1 0.3 0.2c0.6 0.2 1.8-0.4 1.8 0.4c0 0.9-1.3 0.8-2.1 0.7c-1.1-0.2-1 0.3-0.6 0.9c0.4 0.8 0.9 1.5 1.4 2.3c0.1 0.2 0.3 0.5 0.1 0.7c-0.4 0.4-0.6 0-0.9-0.2c-0.8-0.5-1.1-1.6-2-2.7c0.2 2.3 0.9 4.3-1.2 5.8c0.3-1.4 0.2-2.7 0.2-4c0-1.2-0.5-0.7-1-0.3c-0.2 0.2-0.4 0.3-0.5 0.1c-0.3-0.4 0-0.7 0.2-1z" />
			<path id="&lt;Path&gt;" class="s1" d="m268.3 280q-0.3 0.4-0.7 0.7c-0.5 0.4-1 0.9-1.7 0.3c-0.5-0.7-0.7-1.3 0-2.1c1.4-1.6 1.6-3.8 2.2-5.7c0.1-0.5-0.2-0.6-0.3-0.9c-0.6-1.3 0.3-2.5 1.7-2.2c1.8 0.4 3.3 0 4.8-1.1c0.6-0.5 1.5-1.2 2.2-0.2c0.5 0.7 0.3 1.7-0.5 2.3c-0.8 0.7-1.5 2.2-2.6 0.3c-0.3-0.5-0.8 0-1.2-0.1c-1-0.1-1.8 0.3-2.4 1.1c-1.2 1.5-1.7 3.4-2.2 5.3c-0.1 0.5 0.2 0.7 0.4 0.9c0.4 0.4 0.5 0.9 0.3 1.4z" />
			<path id="&lt;Path&gt;" class="s2" d="m684.6 264.7c-0.1 1.6-0.6 3.3-0.2 4.8c0.3 0.8-0.3 3 2.1 2.6c0.3 0 1 0.3 0.9 0.8c-0.2 0.9-1.1 0.1-1.7 0.4c0.3 1 0.7 2.1 1 3.1c0 0.3 0.8 0.8 0.1 1.1c-0.6 0.2-0.5-0.5-0.7-0.8c-0.7-1-0.8-2.3-2-3.2c-0.3 1.5-0.6 3-0.8 4.5q-0.2 0.2-0.4 0c-0.8-0.7-0.3-1.6-0.2-2.3q0.2-1.2 0.3-2.4c-0.4-0.4-0.5-0.9-0.8-1.3c-0.9 0.6-1.6 0.2-2.5-0.3c0.9-0.8 2.1-0.1 3-0.5c-0.5-2-2.1-3.5-3-5.7c1.9 0.6 2.1 2.6 3.6 3.5c0.5-1.7 0.4-3.4 0.7-5q0.8-0.2 0.6 0.7z" />
			<path id="&lt;Path&gt;" class="s3" d="m158.4 120.6q-0.9 1.7-1.8 3.3c-0.2 0.5-0.4 0.9-1 1c-0.8 0.1-0.7-0.8-0.7-1.1c-0.2-1.5-0.4-2.9-1.9-3.9c-0.4-0.3-0.2-0.7 0.3-1c1.1-0.6 2-1.4 2.2-2.8c0.1-0.4 0.3-1.2 1-1.2c0.6 0 0.9 0.6 1.2 1.1c0.3 0.6 0.3 1.4 1 1.7c-0.6 0.9-0.1 2-0.3 2.9z" />
			<path id="&lt;Path&gt;" class="s4" d="m581.4 84.3c-0.1-0.3-0.1-0.6 0-0.9c0-0.8 0.3-2.1 1-2.2c1-0.2 0.9 1.2 1.2 1.9c0.4 0.8 0.7 1.5 1.8 1.6c0.6 0 1.1 0.5 0.5 1.3c-1.4 1.5-2.7 3.1-3.1 5.3c-0.1 0.6-0.7 0.5-1.1 0.5c-0.4 0.1-0.4-0.4-0.4-0.7c0.1-1.7-0.8-2.6-2.3-3.2q-0.6-0.2-0.6-0.8c0-0.6 0.5-0.5 0.9-0.5c0.4-0.3 0.7-0.1 1.1 0c0.7 0.4 1.2 1 1.8 1.6c0.4-1 1.8-1.5 1-2.8c-0.2-0.3-0.1-0.8-0.4-1c-0.2-0.1-0.4-0.2-0.6-0.2c-0.3 0.1-0.6 0.2-0.8 0.1z" />
			<path id="&lt;Path&gt;" class="s5" d="m445 18.3c0.1 0 0.2 0 0.2 0.1c0.5 1.3 1.5 1.8 2.8 1.9c0.3 0 0.2 0.7-0.1 0.8c-1.6 0.3-1.3 1.5-1.3 2.6c0 0.4 0.1 0.8-0.4 1c-0.4 0.1-0.8-0.1-1-0.4c-0.6-1-1.3-1-2.1-0.3c-0.3 0.3-0.6 0.6-1 0.2c-0.4-0.4-0.2-0.7 0.1-1c0.7-0.8 1.1-1.5-0.5-1.7c-0.3 0-0.6-0.2-0.6-0.5c0-0.4 0.3-0.5 0.6-0.5c1.3 0.2 2.4 0 2.5-1.7c0-0.3 0.5-0.5 0.8-0.5z" />
			<path id="&lt;Path&gt;" class="s6" d="m190.7 293.3c0.1-0.8 0.7-1.4 1.2-2.1c-0.1-0.1-0.1-0.2-0.2-0.2c-0.6-0.2-1.5 0.8-1.7-0.1c-0.2-0.7 0.9-0.6 1.4-0.7c1.6-0.4 1.7-1.1 0.6-2.2q-0.3-0.3 0-0.7c0.4-0.1 0.7 0.2 1 0.3c0.5-0.3 0.8 0.1 1.1 0.4c0.8-0.3 1.3-2.1 2.4-1.1c0.7 0.7-1.2 0.9-1 2c0.3 0.3 1.2-0.7 1.3 0.3c0 0.6-0.7 0.5-1 0.5c-1.5 0.2-1.6 1-1 2.1c0.1 0.4 0.5 0.7 0.2 1.2q-0.3 0.3-0.7 0q-0.3-0.2-0.6-0.3c-0.3 0.5-0.8 0.7-1.3 0.3c-0.3 0-0.6 0-0.8 0.3c-0.3 0.1-0.6 0.8-0.9 0z" />
			<path id="&lt;Path&gt;" class="s7" d="m45.7 385c0.4-7.3 1.7-14.5 2.7-21.7c0.3-0.2 0.6-0.3 0.9 0c-0.7 5.1-1.6 10.1-2.3 15.1c-0.2 2.2-0.9 4.4-0.3 6.6q-0.5 0.4-1 0z" />
			<path id="&lt;Path&gt;" class="s8" d="m51.4 359c0.9-2 2.2-3.8 3.7-5.4c2.1-2.4 4-4.9 6-7.4c0.3-0.3 0.7-0.6 1-0.9q0.1-0.1 0.3 0c-0.6 1.8-1.8 3.2-3 4.5c-2.9 3.1-5.2 6.5-7.7 9.8c-0.5 0-0.5-0.2-0.3-0.6z" />
			<path id="&lt;Path&gt;" class="s9" d="m676.6 100.2c-1.5-0.1-2-1.9-0.9-3.6q0.2-0.3 0.6-0.4c0.9-0.1 1.9-0.9 2.5 0.2c0.5 1.1 0 2-0.9 2.8c-0.3 0.2-0.4 0.7-0.7 1.1c-0.2 0.1-0.4 0-0.6-0.1z" />
			<path id="&lt;Path&gt;" class="s10" d="m88.6 54.6c0.1 1.9 0.2 3.8 0.1 5.8c-0.1 2.6 0.4 5.2 0.4 7.8c0 0.5-0.1 0.9-0.4 1.4c-0.3 0.2-0.5 0-0.7-0.3q0.2-7.1-0.1-14.1c0-0.2 0.1-0.4 0.2-0.6q0.3-0.3 0.5 0z" />
			<path id="&lt;Path&gt;" class="s11" d="m160.8 464.3c0-0.7 0.3-1.7 1.7-1.9c1.2-0.1 1.4 0.8 1.5 1.7c0.1 1.1-1 2.2-2.1 2.1c-0.9 0-1.2-0.6-1.1-1.9z" />
			<path id="&lt;Path&gt;" class="s9" d="m664.6 81.9c0.7-0.3 1.3-1 2.1-0.1c0.6 0.7 0.8 1.4 0 2.2c-0.1 0.1-0.1 0.4-0.2 0.6c-0.1 0.7-0.8 0.3-1.2 0.6c-1.6-0.2-2.1-1.1-1.4-2.4c0.2-0.3 0.4-0.5 0.4-0.9q0.1-0.2 0.3 0z" />
			<path id="&lt;Path&gt;" class="s12" d="m45.7 385q0.5 0 1 0c1.2 0.6 0.7 1.6 0.4 2.4c-0.2 0.8-0.9 1.3-1.7 1.2c-1.2 0-1.3-1-1.2-1.9c0.2-0.7 0.5-1.6 1.5-1.7z" />
			<path id="&lt;Path&gt;" class="s13" d="m51.4 359c0 0.3 0 0.5 0.3 0.6c0.4 2.1-1 2.9-2.4 3.7q-0.4 0-0.9 0c0.2-0.6 0.4-1.1 0.5-1.7c0.1-2.2 0.4-2.5 2.5-2.6z" />
			<path id="&lt;Path&gt;" class="s14" d="m166.5 294.8c-0.1 1.1-0.1 2.2-1.5 2.3c-1.2 0.1-1.5-1.1-1.5-1.8c0-0.9 0.5-2.1 1.5-2.1c0.6-0.1 1.7 0.5 1.5 1.6z" />
			<path id="&lt;Path&gt;" class="s15" d="m63.1 463.5c0.2-0.9 0.2-1.8 1.5-1.8c1 0 1.6 0.6 1.7 1.6c0.1 1.3-1 1.8-2 2c-1 0.1-1.1-1-1.2-1.8z" />
			<path id="&lt;Path&gt;" class="s16" d="m595.8 433.6c0 1.1-0.6 1.6-1.7 1.8c-1.2 0.1-1.4-0.8-1.4-1.6c-0.1-1 0.6-1.6 1.6-1.8c1.1-0.1 1.5 0.6 1.5 1.6z" />
			<path id="&lt;Path&gt;" class="s17" d="m163.4 374.3c-0.7-0.1-1.2-0.4-1.2-1.1c-0.1-1.3 0.9-2.4 1.9-2.3c0.8 0.1 1.3 0.7 1.3 1.6c-0.1 1.3-1.1 1.6-2 1.8z" />
			<path id="&lt;Path&gt;" class="s9" d="m645.3 70.2c-0.9 0.2-1.5-0.6-2.3-0.8c-0.5-0.3-0.3-1.1-0.2-1.5c0.1-0.9 1.1-0.8 1.7-1.1c0.3-0.1 0.9 0.1 1.2 0.7c0.3 0.9 0.4 1.6-0.1 2.4q-0.1 0.3-0.3 0.3z" />
			<path id="&lt;Path&gt;" class="s18" d="m146.2 272.7c0.7 0.1 1.4 0.5 1.2 1.2c-0.2 0.9-0.1 2.2-1.5 2.2c-1.1 0.1-1.6-0.9-1.7-1.7c0-1 1.1-1.5 2-1.7z" />
			<path id="&lt;Path&gt;" class="s11" d="m385.1 398.6c0-0.8 0.1-1.8 1.3-1.7c0.8 0 1.7 0.1 1.6 1.4c-0.1 1.1-0.6 1.8-1.6 1.9c-0.8 0-1.4-0.6-1.3-1.6z" />
			<path id="&lt;Path&gt;" class="s19" d="m590.7 284.4c1.9 0.7 3.4 1.3 4.9 1.9c0.6 0.3 0.9 0.2 1.4-0.1c0.6-0.4 1 0 1.3 0.6c0.4 0.9-0.4 1.1-0.9 1.5c-0.4 0.2-1 0.5-1.2-0.2c-0.4-1.4-1.7-1.4-2.7-1.8c-0.9-0.5-2-0.5-2.8-1.9z" />
			<path id="&lt;Path&gt;" class="s20" d="m352.7 17q0.3-0.1 0.6-0.1c0.3-0.3 0.8 0 1-0.3c0.2-0.2 0.4-0.4 0.7-0.3c0.8 0.1 1-0.9 1.6-1c0.3-0.1 0.7-0.6 1 0c0.2 0.4-0.1 0.6-0.4 0.8q-0.5 0.3-1 0.6c0.4 0.8 1.4 0.2 2.1 1.1c-1.1 0-2 0.1-2.9 0.1c-0.3 0.3-0.4 0.6-0.7 0.7c-1.1 0-2.1-0.2-2-1.6z" />
			<path id="&lt;Path&gt;" class="s21" d="m379 257.4c-0.2 1.3-1.1 1.6-2.1 1.9c-0.9 0.2-1.4-0.6-1.4-1.3c0-1.2 1.1-1.5 2.1-1.6c0.7-0.2 1.1 0.4 1.4 1z" />
			<path id="&lt;Path&gt;" class="s22" d="m676.3 107.9c0.5 0.9 1.7 1.6 0.6 2.8c-0.4 0.6-0.8 1-1.6 0.9c-0.8-0.2-1-0.7-1.1-1.3c-0.1-0.8 0.3-1.4 0.9-1.6c0.6-0.1 0.8-0.5 1.2-0.7z" />
			<path id="&lt;Path&gt;" class="s23" d="m42.4 436.7c0.9-0.1 1.3 0.4 1.3 1.3c0.1 1.4-1.1 1.4-1.9 1.5c-0.6 0.1-1.7-0.3-1.5-1.2c0.2-0.9 1-1.6 2.1-1.6z" />
			<path id="&lt;Path&gt;" class="s24" d="m372.7 306.1c-0.2 1-0.1 2.1-1.5 2.2c-0.9 0.1-1.5-0.8-1.4-1.4c0-1.1 1-1.8 1.9-2.1c0.6-0.2 1.1 0.5 1 1.3z" />
			<path id="&lt;Path&gt;" class="s25" d="m275 288.9c-0.1 1.1-0.6 2.1-1.8 2.2c-0.7 0-1.2-0.9-1-1.6c0.1-0.9 0.4-1.9 1.7-1.8c0.8 0 1.2 0.4 1.1 1.2z" />
			<path id="&lt;Path&gt;" class="s26" d="m392 326c0.8 0.6 1.5 1.1 2.4 1.5c0.9 0.4 0 1.2-0.2 1.9c-0.1 0.5-0.5 1.1-1.3 0.9c-0.6-0.2-0.8-0.8-0.9-1.5c0-0.7 0.7-1.4 0-2.1c-0.2-0.3-0.2-0.5 0-0.7z" />
			<path id="&lt;Path&gt;" class="s27" d="m284.7 260.5c-0.8 0.1-1.2-0.3-1.2-0.9c0.1-1.2 0.8-1.9 2-1.9c0.7-0.1 1.2 0.1 1.2 1c0 1.4-1.1 1.6-2 1.8z" />
			<path id="&lt;Path&gt;" class="s24" d="m480.2 373.7c-0.2 1-0.6 2.1-1.7 2.2c-0.5 0.1-1.5 0-1.4-0.9c0.1-1 0.5-2 1.6-2.2c0.6-0.2 1.3 0.1 1.5 0.9z" />
			<path id="&lt;Path&gt;" class="s18" d="m49.5 265.4c-1.3 0.2-1.5-0.8-1.6-1.8c-0.1-0.5 0.4-1.1 1.1-0.9c0.8 0.4 2.1 0.4 2.2 1.6c0 0.6-0.6 1.4-1.7 1.1z" />
			<path id="&lt;Path&gt;" class="s21" d="m512.3 37.8c-0.1 1.1-1 1.4-1.8 1.5c-0.7 0.1-1.3-0.4-1.2-1.2c0.2-1 0.8-1.7 1.8-1.8c0.8 0 1.2 0.7 1.2 1.5z" />
			<path id="&lt;Path&gt;" class="s21" d="m388.4 436.7c-0.2 0.9-0.1 2.1-1.2 2.1c-0.5 0.1-1.7 0.1-1.5-1c0.1-1 0.3-2 1.5-2c0.5 0 1.3 0.2 1.2 0.9z" />
			<path id="&lt;Path&gt;" class="s28" d="m65.7 340c-0.7-0.4-1.2-0.9-0.9-1.7c0.4-1 1-1.9 2.2-1.6c1.3 0.4 0.3 1.4 0.3 2.1c0 0.4-0.4 0.8-0.6 1.2c-0.3 0.4-0.7-0.2-1 0z" />
			<path id="&lt;Path&gt;" class="s29" d="m523.7 82.4c0.1-0.4 0.5-1 1.4-1.1c1.3-0.2 1.2 0.9 1.4 1.7c0.1 1.2-1.1 1-1.7 1.2c-1 0.3-1.1-0.6-1.1-1.8z" />
			<path id="&lt;Path&gt;" class="s30" d="m165.4 419.1c-0.8 0.1-1.3-0.5-1.3-1.2c0-0.9 0.9-1.5 1.7-1.7c0.5-0.1 1.4 0.3 1.3 1.1c-0.1 0.9-0.3 1.9-1.7 1.8z" />
			<path id="&lt;Path&gt;" class="s31" d="m94.7 89.8q-2.3-3.6-4.7-7.2c-0.2-0.4-0.2-0.7 0.4-0.7c1.2 1.9 2.4 3.7 3.6 5.5c0.5 0.6 0.6 1.4 1 2c0.1 0.3 0 0.4-0.3 0.4z" />
			<path id="&lt;Path&gt;" class="s32" d="m52.4 279.1c0 1.1-0.3 1.8-1.4 1.9c-0.8 0-1.2-0.9-1.1-1.4c0.1-0.8 0.6-1.7 1.6-1.7c0.9-0.1 0.9 0.7 0.9 1.2z" />
			<path id="&lt;Path&gt;" class="s4" d="m276.7 455.3c0.2 0.9-0.5 1.5-1.4 1.6c-0.7 0.1-1-0.5-0.9-1.1c0.1-0.9 0-2 1.4-2.1c0.9 0 0.9 0.7 0.9 1.6z" />
			<path id="&lt;Path&gt;" class="s33" d="m66.4 273.7c0.9-0.2 1.2 0.5 1.3 1.2c0.1 1-0.7 1.5-1.4 1.6c-0.7 0-1.3-0.4-1.3-1.4c0.1-0.9 0.3-1.5 1.4-1.4z" />
			<path id="&lt;Path&gt;" class="s34" d="m704.9 199.6c-0.7-0.3-1.5-0.6-1.2-1.6c0.1-0.7 0.6-1 1.4-1c0.8-0.1 1.3 0.1 1.7 0.9c0.3 0.9-0.3 1.2-0.8 1.5c-0.4-0.1-0.7 0-1.1 0.2z" />
			<path id="&lt;Path&gt;" class="s35" d="m679.4 308.2c0.6 0.1 1.5 0.2 1.4 1.1c-0.1 0.9-0.9 1.3-1.7 1.4c-0.8 0.1-1.6-0.5-1.5-0.9c0.1-0.8 0.6-1.6 1.8-1.6z" />
			<path id="&lt;Path&gt;" class="s15" d="m88 69.3q0.4 0.1 0.7 0.3c1.1 1 1.1 2 0 3q-0.1 0.2-0.3 0c-1.5-0.6-2.1-1.4-0.4-3.3z" />
			<path id="&lt;Path&gt;" class="s24" d="m625 301.1c-0.1 1.3-0.6 1.8-1.5 1.9c-0.6 0-1.4-0.2-1.3-1c0.1-0.8 0.4-1.8 1.6-1.8c0.7 0 1.3 0.4 1.2 0.9z" />
			<path id="&lt;Path&gt;" class="s4" d="m494 256c-0.6-0.2-1.2-0.3-1.1-1c0.1-1.2 0.8-1.9 1.9-1.9c0.4 0 0.9 0.1 0.9 0.8c0 1.2-0.8 1.7-1.7 2.1z" />
			<path id="&lt;Path&gt;" class="s36" d="m489 96.8c-0.1 0.6-0.1 1.5-1.1 1.6c-0.6 0-1.5-0.1-1.4-1c0.1-0.8 0.3-1.7 1.5-1.8c0.8 0 1.1 0.3 1 1.2z" />
			<path id="&lt;Path&gt;" class="s17" d="m244.2 34.9c0.7 0.3 1 1 1 1.6c-0.1 1-1 1.3-1.8 1.4c-0.6 0.1-1-0.3-0.9-0.9c0.1-1 0.7-1.7 1.7-2.1z" />
			<path id="&lt;Path&gt;" class="s37" d="m646.5 39.5c-0.1-0.7 0.3-1.2 1-1.2c0.9 0.1 1.4 0.7 1.4 1.6c0 0.7-0.3 1.5-1.2 1.5c-1-0.1-1.2-1-1.2-1.9z" />
			<path id="&lt;Path&gt;" class="s15" d="m387.3 322.9c-0.7-0.4-1.6-1-1.2-2c0.3-0.7 1-0.9 1.8-0.7c1.3 0.3 0.5 1.4 0.8 2.1c-0.2 0.8-0.9 0.4-1.4 0.6z" />
			<path id="&lt;Path&gt;" class="s38" d="m592.5 474.1c0.1 1.2-0.5 1.6-1.4 1.6c-0.8 0-1.2-0.4-1.1-1.1c0.1-0.8 0.3-1.8 1.4-1.7c0.7 0 1.3 0.3 1.1 1.2z" />
			<path id="&lt;Path&gt;" class="s39" d="m352.7 17c0.3 1 1.2 1.2 2 1.6c-0.6 1-0.6 2.1-1.4 3c-0.2 0.2-0.4 0.2-0.6 0c0.1-1 1.1-1.7 0.9-2.8q-0.6 0.2-1.2 0.5c-0.7 0-0.6-0.3-0.4-0.7c-0.1-0.3 1.2-0.4 0.1-0.8c-0.3-0.1-1.1 0.3-1.2-0.3c0-0.7 0.9-0.2 1.3-0.5c0.1-0.1 0.3 0 0.5 0z" />
			<path id="&lt;Path&gt;" class="s40" d="m88.2 46.1c-0.1-0.8-0.9-1.5-0.7-2.5c0.2-0.7 0.3-1.3 1-1.2c0.7 0.1 1.4 0.6 1.2 1.5c-0.2 0.6-0.5 1.2-1 1.7c-0.2 0.1 0 0.6-0.5 0.5z" />
			<path id="&lt;Path&gt;" class="s36" d="m499 249.1c-0.2 1-0.8 1.6-1.8 1.6c-0.7 0-1-0.4-0.9-1.1c0.1-1.2 1.2-1.4 1.9-1.7c0.7-0.3 0.7 0.5 0.8 1.2z" />
			<path id="&lt;Path&gt;" class="s41" d="m104.1 102.2c0.4 0.2 0.7-0.1 1-0.2c0.7-0.1 1.4-0.1 1.7 0.6c0.3 0.7-0.1 1.3-0.7 1.7c-0.8 0.6-1.1-0.1-1.5-0.6c-0.4-0.3-0.6-0.6-0.6-1.1q-0.1-0.2 0.1-0.4z" />
			<path id="&lt;Path&gt;" class="s26" d="m89.1 77.9c0.8 0.9-0.2 1.6-0.3 2.4q-0.7 0.4-1.3-0.1c-1-1-0.8-1.8 0.6-2.9c0.6-0.2 0.7 0.4 1 0.6z" />
			<path id="&lt;Path&gt;" class="s42" d="m69.4 258.2c-0.2 0.6-0.5 1.5-1.4 1.7c-0.6 0.1-1.1-0.2-1.1-0.9c0.1-0.9 0.4-1.8 1.4-1.9c0.4-0.1 1.2 0.1 1.1 1.1z" />
			<path id="&lt;Path&gt;" class="s43" d="m676.6 100.2c0.3-0.3 0.4 0 0.6 0.1c0.7 2.1-0.2 4.2-0.3 6.4c0 0.4 0.1 1.1-0.6 1.2c0 0 0 0.1 0 0.1c-0.2-2.7 0.5-5.2 0.3-7.8z" />
			<path id="&lt;Path&gt;" class="s44" d="m298.8 18.7c-0.1 0.8-0.2 1.4-1.1 1.3c-0.7 0-1.5-0.4-1.5-1.1c-0.1-1 0.8-1.2 1.5-1.3c0.8 0 1 0.6 1.1 1.1z" />
			<path id="&lt;Path&gt;" class="s45" d="m257.4 70.9c-1 0.2-1.2-0.6-1.2-1.3c-0.1-0.6 0.3-1 1-1c0.9 0.1 1.4 0.5 1.5 1.4c0 1-0.6 0.9-1.3 0.9z" />
			<path id="&lt;Path&gt;" class="s46" d="m65.7 340c0.3-1.6 0.7 0.6 1 0c-1.6 1.7-2.4 3.9-4.3 5.3q-0.2 0-0.3 0c0.7-2.1 2.6-3.4 3.6-5.3z" />
			<path id="&lt;Path&gt;" class="s47" d="m151.8 41.7c0.3 1-0.2 1.2-0.9 1.2c-0.8 0-1.1-0.4-1-1.1c0.1-0.7-0.1-1.7 0.8-1.7c1-0.1 1.4 0.8 1.1 1.6z" />
			<path id="&lt;Path&gt;" class="s15" d="m79.4 92.3c-0.2 0.9-0.9 1.3-1.8 1.2c-0.6 0-0.5-0.6-0.5-1c0.2-1.1 0.8-1.7 2-1.6c0.6 0.4 0.6 0.8 0.3 1.4z" />
			<path id="&lt;Path&gt;" class="s48" d="m277 98.2c-0.3 0.7-0.4 1.6-1.5 1.7c-0.6 0.1-1.1-0.2-1-0.8c0.1-1.1 0.9-1.6 1.9-1.8c0.5-0.1 0.6 0.3 0.6 0.9z" />
			<path id="&lt;Path&gt;" class="s15" d="m367.4 467.1c0.5 1.1 0.1 1.9-0.8 2.6c-1.1 0.7-1.5 0.4-1.6-1c0.1-1.5 1.5-1.1 2.4-1.6z" />
			<path id="&lt;Path&gt;" class="s49" d="m386.5 339.6c0.3 0.9 0.3 1.8-0.7 2.3c-0.5 0.2-1.2 0.3-1.5-0.5c-0.3-0.7-0.2-1.1 0.6-1.4q0.7-0.3 1.5-0.6q0 0.1 0.1 0.2z" />
			<path id="&lt;Path&gt;" class="s50" d="m460.1 20.2c-0.6 0-1.1-0.2-1.1-1.1c0.1-0.7 0.5-1.2 1.2-1c0.5 0.1 1.5-0.1 1.5 0.9c0 0.8-0.6 1.2-1.6 1.2z" />
			<path id="&lt;Path&gt;" class="s15" d="m98 96c-1.4-0.1-2.1-0.6-1.3-2.1c0.3-0.1 0-0.8 0.6-0.6c0.8 0.6 2.2 0.8 1.3 2.3c-0.1 0.2-0.3 0.4-0.6 0.4z" />
			<path id="&lt;Path&gt;" class="s31" d="m88.6 54.6q-0.2 0-0.5 0c0-2.2-0.2-4.5 0.1-6.7l0.1-0.1l0.1 0.1c0.7 0.9 0.3 1.9 0.3 2.9c0 1.2 0.3 2.5-0.1 3.8z" />
			<path id="&lt;Path&gt;" class="s51" d="m586.3 292.7c-0.7 0.2-1.6 0.3-1.8-0.4c-0.5-1.2 0.9-1.7 1.3-3c0.4 1 0.2 1.9 0.8 2.4c0.4 0.5 0 0.7-0.3 1z" />
			<path id="&lt;Path&gt;" class="s52" d="m227 100.9c-0.9 0.1-1.2-0.5-1.2-1.1c-0.1-0.6 0.4-1.2 1.1-1.1c0.5 0 1.3 0.2 1.3 0.9c0 0.6-0.3 1.4-1.2 1.3z" />
			<path id="&lt;Path&gt;" class="s52" d="m423.7 75.2c0.1-0.3-0.4-0.8 0.3-0.9c0.8-0.2 1.5-0.8 2.3-0.3c0.4 0.3 0.2 0.8 0.1 1c-0.2 0.8-0.9 1-1.7 0.9c-0.3-0.3-0.7-0.4-1-0.7z" />
			<path id="&lt;Path&gt;" class="s1" d="m445.8 288.4c-0.1 0.6-0.3 1.2-1.1 1.2c-0.8 0.1-1-0.4-1-1.1c0-0.8 0.4-1.4 1.1-1.4c0.8-0.1 0.8 0.7 1 1.3z" />
			<path id="&lt;Path&gt;" class="s12" d="m593.9 295.6c0 0.2-0.1 0.3 0 0.4c0.6 0.8 0.5 1.6-0.3 1.9c-1 0.4-1.5-0.3-1.6-1.2c-0.6-1.2 0.2-1.2 1-1.1q0.2-0.1 0.3-0.3c0.4-0.2 0.6-0.2 0.6 0.3z" />
			<path id="&lt;Path&gt;" class="s53" d="m703.9 187.6c-0.5-0.1-1.2 0-1.1-0.8c0.1-1.2 1.1-1 1.8-1.3c0.5-0.1 1 0.2 0.9 0.7c0 1-0.7 1.3-1.6 1.4z" />
			<path id="&lt;Path&gt;" class="s54" d="m271.8 335.3c-0.4-0.1-1.1-0.3-1-0.8c0.2-0.7 0.5-1.7 1.5-1.7c0.6-0.1 0.8 0.5 0.7 1c-0.1 0.7-0.2 1.4-1.2 1.5z" />
			<path id="&lt;Path&gt;" class="s31" d="m384.3 137.6c-0.1-2.6 0-5.2 0.8-7.7c0.8 2.6-0.9 5.1-0.4 7.7q-0.2 0.1-0.4 0z" />
			<path id="&lt;Path&gt;" class="s4" d="m584.6 377.3c0 0.3-0.2 0.9-1 1c-0.6 0.1-1.2-0.6-1.1-0.8c0.3-0.7 0.3-1.6 1.2-1.8c0.8-0.1 0.9 0.5 0.9 1.6z" />
			<path id="&lt;Path&gt;" class="s55" d="m338.7 79.9c-0.1 0.6-0.8 0.9-1.4 0.9c-0.6 0.1-1.2-0.3-1.1-0.9c0.1-0.8 0.8-1.2 1.6-1.2c0.4 0 0.9 0.3 0.9 1.2z" />
			<path id="&lt;Path&gt;" class="s56" d="m272.5 157.4c-0.3 0-0.8-0.5-0.7-0.8c0.3-0.5 0.4-1.5 1.5-1.3c0.5 0.1 1 0.2 1 0.8c-0.1 0.9-0.8 1.2-1.8 1.3z" />
			<path id="&lt;Path&gt;" class="s57" d="m489.6 260.5c0.1-0.8 0.1-1.5 1-1.5c0.7 0 1.1 0.3 1 1c0 0.9-0.4 1.3-1.2 1.4c-0.9 0.1-0.4-0.8-0.8-0.9z" />
			<path id="&lt;Path&gt;" class="s58" d="m387.8 186.3c-0.6 0.1-0.8-0.5-0.9-1.1c-0.1-0.7 0.3-1.2 1-1.2c0.8-0.1 1 0.6 1.1 1.2c0.1 0.7-0.3 1.1-1.2 1.1z" />
			<path id="&lt;Path&gt;" class="s59" d="m578.5 257.1c-0.3 0.8-0.6 1.5-1.5 1.5c-0.4 0-0.9-0.1-0.9-0.7c0.1-0.7 0.5-1.4 1.3-1.5c0.6-0.1 0.9 0.3 1.1 0.7z" />
			<path id="&lt;Path&gt;" class="s60" d="m184.7 69.5c-0.2 0.7-0.8 1.2-1.6 1.2c-0.5 0-0.8-0.4-0.7-1c0-0.7 0.3-1.2 1.1-1c0.4 0.1 1.2-0.1 1.2 0.8z" />
			<path id="&lt;Path&gt;" class="s61" d="m158.4 120.6c-0.2-1-1.5-2.1 0.3-2.9c1.4 0.7 1.4 1.1-0.3 2.9z" />
			<path id="&lt;Path&gt;" class="s62" d="m365.2 282c0.5-0.1 0.9 0.1 0.8 0.7c-0.1 0.7-0.5 1.4-1.2 1.5c-0.6 0.1-1-0.8-1-1.3c0.1-0.6 0.7-0.9 1.4-0.9z" />
			<path id="&lt;Path&gt;" class="s63" d="m599.3 134c0.1 0.3-0.6 0.9 0.3 0.9c-1.3 1.7-1.9 2.1-3.6 2.3c1.2-1.2 2.2-2.2 3.3-3.2z" />
			<path id="&lt;Path&gt;" class="s15" d="m383.7 122.6q-0.7-0.3-1.4-0.7h0.1c0.2-0.8 0-2.3 1.1-2.2c1 0.1 0.3 1.5 0.5 2.3c0 0.2 0 0.4 0 0.6q-0.1 0.2-0.3 0z" />
			<path id="&lt;Path&gt;" class="s64" d="m89.1 77.9q-0.5-0.3-1-0.6q0.2-2.3 0.3-4.7q0.2 0 0.3 0c0.8 1.7 0.1 3.6 0.4 5.3z" />
			<path id="&lt;Path&gt;" class="s65" d="m97.3 93.3q-0.3 0.3-0.6 0.6c-0.3-1.5-1.4-2.6-2-4.1q0.2-0.2 0.3-0.4q1.8 1.6 2.3 3.9z" />
			<path id="&lt;Path&gt;" class="s66" d="m674.2 94.3c-0.9-0.9-1.9-1.9-2.9-2.8c-0.5-0.5-0.7-0.9-0.1-1.6c0.8 1.7 2.5 2.4 3.1 4.1q0.2 0.2-0.1 0.3z" />
			<path id="&lt;Path&gt;" class="s67" d="m270.9 233.3c-0.2 0.8-0.3 1.6-1.2 1.5c-0.3-0.1-1-0.1-0.8-0.9c0.2-0.7 0.4-1.3 1.3-1.3c0.5 0.1 0.7 0.4 0.7 0.7z" />
			<path id="&lt;Path&gt;" class="s68" d="m599.6 129.9c0.4 0.4 1.4 0.5 0.4 1.4c-0.5 0.6 0.6 0.5 0.6 1q-1.4-0.1-2.7-0.2c-0.4 0-0.9-0.1-0.8-0.6c0.1-0.5 0.5-0.2 0.8-0.3c0.7-0.2 2.2 0.5 1.7-1.3z" />
			<path id="&lt;Path&gt;" class="s36" d="m597.7 67.8c-0.2 0.6-0.2 1.4-1 1.3c-0.5-0.1-1.4 0.1-1.4-0.8c0.1-0.9 1-1 1.6-1.2c0.6-0.2 0.7 0.3 0.8 0.7z" />
			<path id="&lt;Path&gt;" class="s69" d="m194.1 288q-0.6-0.2-1.1-0.4q0.1-1.3 0.1-2.6c0-0.4-0.1-0.9 0.4-0.9c0.7 0 0.5 0.6 0.5 1q0.1 1.4 0.1 2.9z" />
			<path id="&lt;Path&gt;" class="s32" d="m384.3 137.6q0.2 0 0.4 0c0.4 0.6 1.3 1.3 0.1 2c-0.4 0.2-1.2 0.3-1.4-0.4c-0.2-0.8-0.1-1.4 0.9-1.6z" />
			<path id="&lt;Path&gt;" class="s70" d="m588 285.7c-0.3-0.4-0.1-0.8-0.1-1.1c-0.2-0.8 0.2-1.3 0.7-1.5c0.7-0.3 0.9 0.4 1.2 0.8c0.2 0.3 0.4 0.5 0.7 0.9c-1.3-0.8-1.8 0.3-2.5 0.8z" />
			<path id="&lt;Path&gt;" class="s71" d="m593.9 295.6c-0.1-0.2-0.3-0.3-0.6-0.3c0.7-1.3 1.1-2.8 2-4c0.7 1.8-0.7 3-1.4 4.3z" />
			<path id="&lt;Path&gt;" class="s72" d="m79.4 92.3q0-0.8-0.3-1.4c1-0.4 1.1-1.6 1.8-2.3c0.3-0.5 0.6-1.1 1.2-1.3q0.1-0.2 0.3 0q-1.5 2.5-3 5z" />
			<path id="&lt;Path&gt;" class="s73" d="m590.9 386.1c-0.3 0.8 1 1.6-0.2 2.1c-0.3 0.2-0.9 0.5-1.1-0.2c-0.3-1-0.1-1.7 1.3-1.9z" />
			<path id="&lt;Path&gt;" class="s74" d="m192.4 293q0.7 0 1.3-0.3q-0.2 1.4-0.3 2.9c-0.4 0.3-0.7 0.4-1 0q0-1.3 0-2.6z" />
			<path id="&lt;Path&gt;" class="s53" d="m194.3 293q0.4 0 0.7 0c0.2 0.4 0.7 0.5 0.7 1c0.1 0.6 0.7 1.3 0.1 1.6c-0.7 0.3-0.9-0.7-1.1-1.2c-0.2-0.4-0.3-0.9-0.4-1.4z" />
			<path id="&lt;Path&gt;" class="s75" d="m593.8 199.9c0.9 0.1 0.9 0.9 1 1.4c0.2 0.5-0.3 0.9-0.7 0.8c-0.6-0.1-1-0.7-1.1-1.3c-0.1-0.5 0.4-0.7 0.8-0.9z" />
			<path id="&lt;Path&gt;" class="s39" d="m99.4 96.9c0.9 1.1 2.1 2.1 2.9 3.4q-0.1 0.4-0.5 0.3c-1-1.1-2.2-2-2.7-3.3q0-0.3 0.3-0.4z" />
			<path id="&lt;Path&gt;" class="s73" d="m581.4 84.3q0.4-0.2 0.8-0.4q0.4 2.3-2 3q-0.4-0.1-0.9-0.3c1-0.5 1.3-1.6 2.1-2.3z" />
			<path id="&lt;Path&gt;" class="s76" d="m476.9 127.9c-0.5 0.1-0.7-0.4-0.7-0.7c-0.1-0.8 0.5-1 1.1-1.1c0.5 0 1 0 0.9 0.6c-0.1 0.7-0.5 1.1-1.3 1.2z" />
			<path id="&lt;Path&gt;" class="s77" d="m586.3 292.7q0.2-0.5 0.3-1c1.1 0.8 2.9 0.7 3 2.6c-1.2-0.4-2-1.5-3.3-1.6z" />
			<path id="&lt;Path&gt;" class="s78" d="m652.6 74.9q-1.8-1.1-3.6-2.2q0.1-0.3 0.2-0.5c1.5 0.6 2.9 1.2 3.7 2.7q-0.1 0.2-0.3 0z" />
			<path id="&lt;Path&gt;" class="s79" d="m355 16.3c-0.1 0.2-0.4 0.3-0.7 0.3q0.2-1.5 0.4-2.9c0-0.3 0.2-0.6 0.5-0.5c0.3 0 0.5 0.4 0.4 0.7c-0.3 0.8-0.1 1.7-0.6 2.4z" />
			<path id="&lt;Path&gt;" class="s80" d="m389.4 334.3c0.1-1.3 1.3-1.9 1.9-2.9c0-0.1 0.3-0.1 0.5-0.1c0 0.2 0.1 0.5 0 0.6c-0.8 0.8-1.1 1.9-2.1 2.4q-0.1 0.3-0.3 0z" />
			<path id="&lt;Path&gt;" class="s81" d="m679.7 476.6c0.1-0.2 0.3-0.5 0.4-0.5c0.6 0 0.5-0.9 1.1-0.7c0.4 0.2 0.5 0.6 0.5 1c0 0.7-0.5 1-1.1 1.1c-0.6-0.1-0.8-0.5-0.9-0.9z" />
			<path id="&lt;Path&gt;" class="s82" d="m665.3 85.2q0.6-0.3 1.2-0.6c0.8 1 2.1 1.7 2.2 3.4c-1.4-0.8-1.6-2.8-3.4-2.8z" />
			<path id="&lt;Path&gt;" class="s81" d="m238.2 290c0.7 0 1.1 0.2 1 0.7c0 0.5-0.2 1-0.9 1c-0.6 0-1.1-0.5-1.1-0.8c0.1-0.4 0.5-1 1-0.9z" />
			<path id="&lt;Path&gt;" class="s79" d="m389.4 334.3q0.1 0 0.3 0c-0.4 1.3-1 2.5-2 3.4c-0.3 0.1-0.5 0-0.4-0.4c0.5-1.2 1.3-2 2.1-3z" />
			<path id="&lt;Path&gt;" class="s83" d="m190.7 293.3c0.3 0.4 0.6-0.1 0.9 0c-0.6 1.1-1.4 2-2.9 2.3c0.4-1.2 1.3-1.6 2-2.3z" />
			<path id="&lt;Path&gt;" class="s84" d="m97.9 478.7c-0.3-0.1-0.9 0.1-0.7-0.3c0.2-0.8 0.8-1.4 1.6-1.5c0.3-0.1 0.6 0.2 0.5 0.5c-0.3 0.5-0.5 1.4-1.4 1.3z" />
			<path id="&lt;Path&gt;" class="s71" d="m593 295.6c-0.5 0.3-1.3 0.2-1 1.1c-0.3-1.4-1.8-1.3-2.4-2.4q0 0 0 0c0.6-0.5 1.1 0 1.6 0.3c0.6 0.4 1.2 0.7 1.8 1z" />
			<path id="&lt;Path&gt;" class="s85" d="m387.3 322.9q0.7-0.3 1.4-0.6c0 0 0.1 0 0.1 0.1c0.5 0.7 2 1.2 1.4 1.9c-0.7 0.7-1.2-0.7-1.8-1.1c-0.3-0.2-0.7-0.1-1.1-0.3z" />
			<path id="&lt;Path&gt;" class="s86" d="m654.3 75.6c1.4 0.4 2.6 1.1 3.5 2.4c-1.2-0.7-2.7-1-3.5-2.4z" />
			<path id="&lt;Path&gt;" class="s70" d="m588 285.7c-1.6 0.5-1.6 1.7-1.5 3c0.7-0.9 1.3-1.9 1.5-3.1q0 0.1 0 0.1z" />
			<path id="&lt;Path&gt;" class="s87" d="m370 141c0 0.7-0.4 0.9-1 0.9c-0.3-0.1-0.7-0.3-0.7-0.4c0.1-0.7 0.5-1.1 1-1.5q0.4 0.3 0.7 0.6q0.3 0.2 0 0.4z" />
			<path id="&lt;Path&gt;" class="s88" d="m101.8 100.6q0.2-0.2 0.5-0.3c0.4 0.7 1.5 1 1.8 1.9q-0.1 0.2-0.1 0.4c-1.5 0.2-1.5-1.3-2.2-2z" />
			<path id="&lt;Path&gt;" class="s89" d="m645.3 70.2q0.1-0.1 0.3-0.3q1.6 0.9 3.2 1.8c-1.5 0.2-2.5-0.7-3.5-1.5z" />
			<path id="&lt;Path&gt;" class="s90" d="m82.4 87.3q-0.2 0-0.3 0c0.1-1.1 1.2-1.5 1.6-2.4c0-0.2 0.3-0.3 0.5-0.2c0.3 0.3 0.2 0.6 0 0.8c-0.7 0.5-1 1.4-1.8 1.8z" />
			<path id="&lt;Path&gt;" class="s91" d="m62.3 81.3c0.4 0.1 0.9 0.3 0.8 0.9c0 0.5-0.6 0.4-1 0.4c-0.4 0-0.9-0.1-0.8-0.6c0-0.5 0.4-0.8 1-0.7z" />
			<path id="&lt;Path&gt;" class="s77" d="m682.2 272c0.4 0.4 1.1 0.6 0.8 1.3c-1.1 0.1-1.4 1.1-2.1 1.7h0.1c-0.4-0.4-0.6-0.6-0.1-1.1c0.6-0.5 1.5-0.9 1.3-1.9z" />
			<path id="&lt;Path&gt;" class="s92" d="m508.6 487.6c-0.1 0.5-0.5 0.4-0.8 0.4c-0.5 0-1.1-0.2-1-0.9c0-0.3 0.2-0.8 0.5-0.6c0.4 0.4 1.1 0.5 1.3 1.1z" />
			<path id="&lt;Path&gt;" class="s93" d="m296.3 71.3c-0.6 0.1-0.7 1.2-1.5 0.6c-0.4-0.3-0.5-0.7-0.1-1.1c0.8-0.9 1 0.5 1.6 0.5z" />
			<path id="&lt;Path&gt;" class="s94" d="m391.4 83.9c-0.3-0.9 0.4-1.5 1-2.3c0.5 1 0.4 1.7-0.4 2.3q-0.3 0.3-0.6 0z" />
			<path id="&lt;Path&gt;" class="s95" d="m87.5 80.2q0.6 0 1.3 0.1c0.8 0.3 1.1 1 1.6 1.6c-0.3 0.2-0.3 0.4-0.4 0.7c-0.7-0.8-1.1-2.1-2.6-2q0-0.2 0.1-0.4z" />
			<path id="&lt;Path&gt;" class="s76" d="m309.4 481.6c-0.3 0-0.7 0-0.7-0.5c0.1-0.4 0.1-0.9 0.8-0.8c0.4 0.1 0.8 0.1 0.8 0.6c0 0.6-0.6 0.5-0.9 0.7z" />
			<path id="&lt;Path&gt;" class="s96" d="m367.4 467.1c0 0.7-0.6 0.5-1.1 0.7c-0.5 0.1-1.1 0.3-1.3 0.9c-0.6-0.3-0.1-0.6 0-1c0.2-0.4 0.6-0.7 1-1q0.7 0.2 1.4 0.4z" />
			<path id="&lt;Path&gt;" class="s97" d="m384.7 124.9c0.4 1.4 1.1 2.8 0.5 4.3c1-1.6 0.7-3-0.5-4.2z" />
			<path id="&lt;Path&gt;" class="s98" d="m47.7 115.5c0.6 0.9-0.2 0.8-0.6 0.8c-0.4 0-1.1 0.4-1.3-0.3c-0.1-0.5 0.5-0.6 0.9-0.8c0.4-0.1 0.7 0.1 1 0.3z" />
			<path id="&lt;Path&gt;" class="s99" d="m682.9 278q0.2 0 0.4 0q0 0.1 0 0.1c0 0.8-0.1 1.5-0.7 2c-0.2 0.2-0.5-0.1-0.5-0.3c-0.1-0.7 0.3-1.3 0.8-1.8z" />
			<path id="&lt;Path&gt;" class="s100" d="m373.3 134.6c-0.2 0.4-0.5 0.8-0.7 1.2c-0.2 0.4-0.5 0.4-0.8 0.5c-0.2 0-0.4-0.1-0.4-0.4c-0.1-0.4 0.2-0.5 0.5-0.7c0.4-0.2 0.9-0.6 1.4-0.6z" />
			<path id="&lt;Path&gt;" class="s97" d="m674.2 94.3q0.1-0.2 0.1-0.3c0.9 0.5 1.4 1.4 2 2.2c-0.1 0.3-0.4 0.4-0.6 0.4c-0.2-0.9-1.3-1.3-1.5-2.3z" />
			<path id="&lt;Path&gt;" class="s101" d="m191.7 21.1c-0.1 0.8-0.4 0.8-0.7 0.8c-0.5 0-0.7-0.2-0.8-0.7c-0.1-0.5 0.3-0.7 0.6-0.7c0.4 0.2 0.7 0.5 0.9 0.6z" />
			<path id="&lt;Path&gt;" class="s102" d="m192.4 295.6q0.5 0 1 0c-0.6 0.7-0.2 1.8-1.1 2.3c-0.1-0.8-0.4-1.6 0.1-2.3z" />
			<path id="&lt;Path&gt;" class="s103" d="m51 486.4c0-0.4 0.2-0.9 0.7-0.6c0.7 0.3 0.4 1 0.3 1.5c-0.2 0.6-0.6 0.5-1 0.1q0-0.5 0-1z" />
			<path id="&lt;Path&gt;" class="s104" d="m40.6 201c-0.6 0.3-0.5-0.1-0.5-0.3c-0.1-0.6 0.1-1 0.8-1c0.4 0 0.4 0.3 0.4 0.7c0.1 0.7-0.4 0.5-0.7 0.6z" />
			<path id="&lt;Path&gt;" class="s105" d="m387.3 337.3q0.2 0.2 0.4 0.4c-0.1 0.8-0.4 1.5-1.2 1.9q-0.1 0-0.1-0.2c0-0.8 0.4-1.4 0.9-2.1z" />
			<path id="&lt;Path&gt;" class="s106" d="m85.7 82.6c1.2-0.2 1.3-1.2 1.7-2q0 0 0 0c-1 0.3-1.7 0.9-1.7 2z" />
			<path id="&lt;Path&gt;" class="s107" d="m664.6 81.9q-0.2 0-0.3 0c-1.2-0.1-1.9-0.9-3.1-1.6c1.7 0 2.4 1.1 3.4 1.6z" />
			<path id="&lt;Path&gt;" class="s108" d="m264.1 479.8c0.2 0.6-0.1 0.6-0.4 0.5c-0.5 0-0.9-0.2-0.7-0.8c0.1-0.3-0.1-0.8 0.4-0.7c0.6 0.1 0.6 0.7 0.7 1z" />
			<path id="&lt;Path&gt;" class="s109" d="m352 18.6c0 0.3 0.1 0.5 0.4 0.7c-0.7 0.5-1.3 1-2.4 1.3c0.4-1.2 1.4-1.4 2-2z" />
			<path id="&lt;Path&gt;" class="s105" d="m354.3 16.6c-0.2 0.4-0.6 0.3-1 0.3c-0.3-0.8-1.3-1.3-1-2.3q0.2-0.2 0.3 0c0.7 0.6 0.7 1.7 1.7 2z" />
			<path id="&lt;Path&gt;" class="s110" d="m192 287.3q0 0.4 0 0.7c-0.8-0.5-0.7-1.4-1.2-2.3c1.2 0.1 1.2 0.9 1.2 1.6z" />
			<path id="&lt;Path&gt;" class="s73" d="m64 113.7c-0.1 0.3-0.3 0.6-0.8 0.6c-0.5 0-0.5-0.4-0.5-0.7c0-0.4 0.4-0.6 0.8-0.6c0.4-0.1 0.6 0.1 0.5 0.7z" />
			<path id="&lt;Path&gt;" class="s111" d="m595.3 291.3c0-0.1 0-0.2 0-0.3c0.2-0.6 0.1-1.3 0.8-1.6c0.1-0.1 0.4 0.2 0.4 0.2c-0.2 0.7-0.3 1.5-1.2 1.7q0 0 0 0z" />
			<path id="&lt;Path&gt;" class="s112" d="m669.1 88c0.4 0 0.5 0.2 0.5 0.4c-0.1 0.6 1.3 0.5 0.7 1.3c-0.1 0.1-0.4 0.2-0.4 0.1c-0.3-0.6-1.3-0.9-0.8-1.8z" />
			<path id="&lt;Path&gt;" class="s113" d="m658.4 78.3c0.9 0.2 1.8 0.3 2.3 1.6c-1-0.6-1.8-0.9-2.3-1.6z" />
			<path id="&lt;Path&gt;" class="s114" d="m465.9 478.5c-0.2 0.2-0.2 0.7-0.6 0.7c-0.4-0.1-0.6-0.5-0.6-0.9c0-0.3 0.3-0.6 0.6-0.5c0.4 0 0.6 0.3 0.6 0.7z" />
			<path id="&lt;Path&gt;" class="s115" d="m370 141q0-0.2 0-0.4c0.9-0.2 1.8-0.5 2.8-0.2c-0.9 0.6-1.8 0.5-2.8 0.6z" />
			<path id="&lt;Path&gt;" class="s93" d="m415.3 117.3c-0.3 0-0.6-0.2-0.6-0.5c0.1-0.3 0.1-0.8 0.6-0.8c0.4 0 0.8 0.1 0.8 0.5c0 0.4-0.4 0.7-0.8 0.8z" />
			<path id="&lt;Path&gt;" class="s77" d="m681 275c-1.2-0.1-1.7 0.7-2.1 1.5c0.8-0.4 1.6-0.7 2-1.5q0.1 0 0.1 0z" />
			<path id="&lt;Path&gt;" class="s116" d="m85.7 82.6c-0.9 0.1-0.9 1-1.7 1.7c1.4-0.1 1.7-0.8 1.7-1.7q0 0 0 0z" />
			<path id="&lt;Path&gt;" class="s71" d="m51.2 59.6c0.3 0.1 0.7 0.1 0.6 0.6c-0.1 0.3-0.5 0.4-0.8 0.4c-0.3-0.1-0.5-0.2-0.5-0.5c0-0.5 0.4-0.5 0.7-0.5z" />
			<path id="&lt;Path&gt;" class="s117" d="m593 40.9c-0.1 0.4-0.4 0.6-0.7 0.6c-0.4-0.1-0.6-0.4-0.5-0.7c0-0.4 0.4-0.5 0.7-0.5c0.4 0 0.5 0.3 0.5 0.6z" />
			<path id="&lt;Path&gt;" class="s118" d="m411.9 481.2c0.5 0.4 1 0.7 0.6 1.4c-0.1 0.1-0.5 0.1-0.6 0c-0.5-0.4-0.2-0.9 0-1.4z" />
			<path id="&lt;Path&gt;" class="s119" d="m373.4 140.2c1-0.6 1.9-0.6 2.8-0.6c-0.8 0.5-1.6 0.8-2.8 0.6z" />
			<path id="&lt;Path&gt;" class="s120" d="m354.7 18.6c0.1-0.3 0.3-0.6 0.7-0.7c-0.2 0.8 0.8 1.2 0.6 2q-0.2 0.2-0.4 0c-0.6-0.2-0.5-0.9-0.9-1.3z" />
			<path id="&lt;Path&gt;" class="s121" d="m88.4 47.9q-0.1 0-0.2 0c-0.2-0.6-0.2-1.2 0-1.8q0.3-0.2 0.5-0.5c-0.2 0.8 0.4 1.6-0.3 2.3z" />
			<path id="&lt;Path&gt;" class="s122" d="m369.3 140c0.9-0.5 0.9-1.5 1.1-2.3c-0.5 0.7-1.1 1.3-1.1 2.3q0 0 0 0z" />
			<path id="&lt;Path&gt;" class="s123" d="m381.3 138.9q-0.9 0-2 0c0.6-0.6 1.3-0.6 2-0.6q0.3 0.3 0 0.6z" />
			<path id="&lt;Path&gt;" class="s124" d="m461.8 77.9c-0.1 0.3-0.2 0.6-0.5 0.6c-0.4-0.1-0.6-0.3-0.5-0.7c0.1-0.3 0.3-0.5 0.6-0.4c0.3 0 0.5 0.2 0.4 0.5z" />
			<path id="&lt;Path&gt;" class="s125" d="m99.4 96.9q-0.2 0.2-0.3 0.4c-0.5-0.4-1.1-0.6-1.1-1.3c0.1-0.3 0.4-0.4 0.6-0.4c0 0.6 0.4 1 0.8 1.3z" />
			<path id="&lt;Path&gt;" class="s82" d="m383.7 122.6q0.2 0 0.3 0c0.7 0.7 0.8 1.5 0.7 2.4q0 0 0-0.1c-0.8-0.5-0.6-1.6-1-2.3z" />
			<path id="&lt;Path&gt;" class="s126" d="m687.7 267.6c-0.1 1-0.7 1.2-1.4 1.6c0.2-0.8 0.7-1.2 1.4-1.6z" />
			<path id="&lt;Path&gt;" class="s127" d="m491.4 452.7c0 0.3-0.1 0.5-0.4 0.6c-0.4 0-0.4-0.4-0.5-0.6c-0.1-0.3 0.1-0.6 0.4-0.6c0.5-0.1 0.4 0.4 0.5 0.6z" />
			<path id="&lt;Path&gt;" class="s128" d="m369.3 104c-0.5 0.4-1 0.4-1.4 0c0 0 0.1-0.3 0.2-0.4c0.5-0.3 0.8-0.1 1.2 0.4z" />
			<path id="&lt;Path&gt;" class="s129" d="m381 124.3c0.3-0.9 0.5-1.8 1.4-2.4q-0.1 0-0.1 0c-0.2 0.9-0.4 1.8-1.3 2.4z" />
			<path id="&lt;Path&gt;" class="s128" d="m477 426.5c-0.2-0.2-0.6-0.1-0.6-0.5c0-0.3 0.3-0.5 0.5-0.5c0.4-0.1 0.4 0.2 0.4 0.5c0 0.3 0.1 0.5-0.3 0.5z" />
			<path id="&lt;Path&gt;" class="s130" d="m684.6 264.7c-0.1-0.4-0.3-0.6-0.6-0.7c0-0.4 0.2-0.8 0.6-0.6c0.5 0.3 0.4 0.8 0 1.3z" />
			<path id="&lt;Path&gt;" class="s131" d="m355.6 19.9q0.2 0 0.4 0c0.6 0.3 0.8 0.8 0.6 1.5c-0.5-0.4-0.8-0.9-1-1.5z" />
			<g id="&lt;Group&gt;">
				<path id="&lt;Path&gt;" class="s43" d="m555.9 46.9c0 0.2 0 0.6-0.4 0.6c-0.3-0.1-0.8-0.2-0.8-0.7c0-0.4 0.2-0.5 0.5-0.5c0.4 0 0.7 0.1 0.7 0.6z" />
				<path id="&lt;Path&gt;" class="s128" d="m553.3 27c0.2 0.1 0.5 0.2 0.4 0.6c-0.1 0.2-0.3 0.4-0.6 0.4c-0.3-0.1-0.5-0.2-0.4-0.6c0.1-0.2 0.2-0.5 0.6-0.4z" />
			</g>
			<g id="&lt;Group&gt;">
				<path id="&lt;Path&gt;" class="s43" d="m700.1 111c0 0.2 0 0.6-0.3 0.6c-0.4-0.1-0.8-0.2-0.8-0.7c0-0.3 0.2-0.5 0.5-0.5c0.4 0 0.6 0.2 0.6 0.6z" />
				<path id="&lt;Path&gt;" class="s128" d="m697.5 91.1c0.3 0.1 0.6 0.2 0.5 0.6c-0.1 0.3-0.4 0.4-0.6 0.4c-0.4-0.1-0.6-0.2-0.4-0.6c0.1-0.2 0.2-0.4 0.5-0.4z" />
			</g>
			<path id="&lt;Path&gt;" class="s132" d="m128.4 71.9c-0.6 0-1-0.1-0.9-0.8c0.2-0.5 0.6-0.3 0.9-0.1q0.4 0.4 0 0.9z" />
			<path id="&lt;Path&gt;" class="s102" d="m124.2 33c0 0.4-0.3 0.5-0.6 0.5c-0.2 0.1-0.5 0-0.4-0.3c0.1-0.2 0.3-0.3 0.5-0.4c0.2-0.1 0.4 0 0.5 0.2z" />
			<path id="&lt;Path&gt;" class="s133" d="m383.8 166.6c-0.3 0-0.4-0.1-0.4-0.4c0.1-0.3 0.3-0.4 0.6-0.4c0.3-0.1 0.3 0.2 0.3 0.4c0 0.3-0.2 0.4-0.5 0.4z" />
			<path id="&lt;Path&gt;" class="s72" d="m378.6 139.1c-0.5 0.5-0.9 0.6-1.4 0.2c0.4-0.5 0.8-0.4 1.4-0.2z" />
			<path id="&lt;Path&gt;" class="s122" d="m373.3 134.6c0-0.9 1-0.8 1.4-1.3q0.1 0.1 0.1 0.2q-0.1 0.1-0.1 0.1c-0.3 0.6-0.7 1-1.4 1q0 0 0 0z" />
			<path id="&lt;Path&gt;" class="s134" d="m128.4 71.9q0-0.5 0-0.9c0.3 0 0.9-0.3 0.9 0.3c0 0.4-0.4 0.6-0.9 0.6z" />
			<path id="&lt;Path&gt;" class="s135" d="m487.5 472.5c-0.8 0.1-1.1-0.2-1.7-0.7c0.8 0 1.2 0.1 1.7 0.7z" />
			<path id="&lt;Path&gt;" class="s136" d="m705 424c0.5 0.2 0.8 0.3 0.8 0.6c-0.1 0.1-0.3 0.3-0.5 0.4c-0.3 0-0.5-0.2-0.5-0.5c0-0.2 0.2-0.4 0.2-0.5z" />
			<path id="&lt;Path&gt;" class="s102" d="m268.3 280q-0.1-0.7-0.3-1.4c1 0.3 0.8 0.8 0.3 1.4z" />
			<path id="&lt;Path&gt;" class="s137" d="m379 127.6c0.7-0.3 0.8-0.8 1-1.6c-0.7 0.5-0.9 1-1 1.6z" />
			<path id="&lt;Path&gt;" class="s138" d="m378.3 128.6c-0.8 0.2-0.6 1-0.8 1.5c0.4-0.5 0.9-0.8 0.8-1.5z" />
			<path id="&lt;Path&gt;" class="s139" d="m381.3 138.9q0-0.3 0-0.6q0.5 0 1.1 0c-0.1 0.8-0.7 0.6-1.1 0.6z" />
			<path id="&lt;Path&gt;" class="s140" d="m392 326q0 0.3 0 0.7c-0.3-0.2-0.6-0.4-0.6-0.8c-0.1-0.2 0-0.4 0.2-0.5c0.5 0 0.4 0.3 0.4 0.6z" />
			<path id="&lt;Path&gt;" class="s102" d="m51 486.4c0.5 0.3 0.1 0.6 0 1q-1.2-0.5 0-1z" />
			<path id="&lt;Path&gt;" class="s141" d="m352.6 14.6q-0.1 0-0.3 0c-0.6 0-0.8-0.3-0.7-0.9c0.6 0 0.8 0.5 1 0.9z" />
			<path id="&lt;Path&gt;" class="s142" d="m187.3 490.7c-0.1 0.1-0.2 0.3-0.3 0.3c-0.3 0.1-0.5-0.1-0.6-0.4c0-0.2 0-0.4 0.3-0.3c0.2 0 0.5 0.1 0.6 0.4z" />
			<path id="&lt;Path&gt;" class="s129" d="m381 124.3c0 0.5-0.2 0.8-0.8 1c0.1-0.6 0.1-1 0.8-1q0 0 0 0z" />
			<path id="&lt;Path&gt;" class="s143" d="m695.1 446.5c-0.1 0.1-0.2 0.2-0.3 0.2c-0.4 0-0.5-0.2-0.5-0.5c0-0.2 0-0.4 0.3-0.3c0.2 0.1 0.5 0.2 0.5 0.6z" />
			<path id="&lt;Path&gt;" class="s144" d="m652.6 74.9q0.2 0 0.3 0c0.5 0.1 1.3-0.2 1.4 0.7q0 0 0 0c-0.5-0.4-1.3-0.1-1.7-0.7z" />
			<path id="&lt;Path&gt;" class="s145" d="m704.9 362.1c0.2 0 0.3 0.1 0.3 0.3c-0.1 0.2-0.2 0.3-0.4 0.5c0 0-0.3-0.1-0.3-0.1c-0.1-0.4 0.2-0.5 0.4-0.7z" />
			<path id="&lt;Path&gt;" class="s146" d="m374.7 133.6q0-0.2 0-0.3c0.1-0.3 0.2-0.7 0.6-0.6c0.1 0 0.2 0.2 0.3 0.3q-0.5 0.3-0.9 0.6z" />
			<path id="&lt;Path&gt;" class="s147" d="m488.6 186.3c0 0.3-0.2 0.3-0.4 0.3c-0.2 0-0.4-0.1-0.4-0.2c-0.1-0.2 0.1-0.4 0.3-0.4c0.2 0 0.4 0 0.5 0.3z" />
			<path id="&lt;Path&gt;" class="s148" d="m352.7 21.6q0.3 0 0.6 0c-0.2 0.3-0.2 1-0.7 0.8c-0.4-0.2 0.1-0.6 0.1-0.8z" />
			<path id="&lt;Path&gt;" class="s148" d="m489.3 311c0.7-0.3 1.1-0.1 1 0.7q-0.7-0.1-1-0.7z" />
			<path id="&lt;Path&gt;" class="s102" d="m47.7 115.5q-0.5-0.1-1-0.3c0.5-0.4 0.9-0.4 1 0.3z" />
			<path id="&lt;Path&gt;" class="s149" d="m700.9 427.3c0 0.2-0.1 0.3-0.3 0.3c-0.1 0-0.3-0.1-0.4-0.2c-0.1-0.2 0-0.3 0.2-0.4q0.3-0.1 0.5 0.3z" />
			<path id="&lt;Path&gt;" class="s150" d="m436.2 113.2c0.2 0.3 0.3 0.5 0.3 0.6c0 0.1-0.1 0.2-0.1 0.4c-0.1-0.1-0.3-0.2-0.3-0.3c-0.1-0.1 0-0.3 0.1-0.7z" />
			<path id="&lt;Path&gt;" class="s89" d="m378.3 128.6c0.7 0 0.7-0.5 0.7-1q0 0 0 0c-0.5 0.2-0.7 0.5-0.7 1q0 0 0 0z" />
			<path id="&lt;Path&gt;" class="s113" d="m391.4 83.9q0.3 0 0.6 0c0.1 0 0.3 0 0.3 0.1c0.3 0.3-0.1 0.3-0.2 0.3c-0.4 0.2-0.6 0-0.7-0.4z" />
			<path id="&lt;Path&gt;" class="s151" d="m377 131.5q-0.3 0.2-0.5 0.3c-0.1-0.1-0.1-0.3-0.1-0.4c0-0.2 0.1-0.4 0.4-0.3c0 0 0.1 0.2 0.2 0.4z" />
			<path id="&lt;Path&gt;" class="s102" d="m366 466.7q-0.5 0.5-1 1q0-1 1-1z" />
			<path id="&lt;Path&gt;" class="s152" d="m423.7 75.2c0.4 0.1 0.9 0.1 1 0.7c-0.6 0.1-0.8-0.2-1-0.7z" />
			<path id="&lt;Path&gt;" class="s153" d="m695.9 305.4c-0.1 0.1-0.2 0.2-0.3 0.3c-0.2 0.2-0.3-0.1-0.3-0.2c0-0.2 0.1-0.3 0.2-0.4c0.2-0.1 0.3 0 0.4 0.3z" />
			<path id="&lt;Path&gt;" class="s102" d="m679.7 476.6q0.4 0.4 0.9 0.9c-0.9 0.3-0.9-0.3-0.9-0.9z" />
			<path id="&lt;Path&gt;" class="s154" d="m704.9 199.6c0.3-0.3 0.6-1 1.1-0.2c-0.3 0.4-0.7 0.2-1.1 0.2z" />
			<path id="&lt;Path&gt;" class="s155" d="m580.2 86.9c1.2-0.6 1.6-1.8 2-3q0.4 0.2 0.7 0.5c0.2 0.2 0.1 0.6 0.5 0.8c0.7 0.4 1.2 0.7 0.3 1.6c-0.6 0.5-1 1.3-1.5 2q-1-1-2-1.9z" />
			<path id="&lt;Path&gt;" class="s156" d="m583.4 85.2c-0.5-0.1-0.8-0.3-0.5-0.8c0.8-0.1 0.2 0.6 0.5 0.8z" />
		</g>
	</g>
	<g id="OBJECTS">
	</g>
</svg>