<?xml version="1.0" encoding="UTF-8" standalone="no" ?>
<!DOCTYPE svg PUBLIC "-//W3C//DTD SVG 1.1//EN" "http://www.w3.org/Graphics/SVG/1.1/DTD/svg11.dtd">
<svg xmlns="http://www.w3.org/2000/svg" xmlns:xlink="http://www.w3.org/1999/xlink" version="1.1" width="500" height="500" viewBox="0 0 500 500" xml:space="preserve">
<desc>Created with Fabric.js 4.6.0</desc>
<defs>
</defs>
<g transform="matrix(0.73 0 0 0.73 170.03 57.57)" id="GeGlbVRpJm0pNghcBR-QH"  >
<path style="stroke: rgb(77,30,74); stroke-width: 1; stroke-dasharray: none; stroke-linecap: butt; stroke-dashoffset: 0; stroke-linejoin: miter; stroke-miterlimit: 4; fill: rgb(255,255,255); fill-opacity: 0; fill-rule: nonzero; opacity: 1;" vector-effect="non-scaling-stroke"  transform=" translate(0, 0)" d="M 0 -28.71148 L 0 28.711489999999998" stroke-linecap="round" />
</g>
<g transform="matrix(1.08 0 0 1.08 189.02 117.84)" id="WjFrE_7cT_KHbiDjSJ_tO"  >
<path style="stroke: rgb(77,30,74); stroke-width: 1; stroke-dasharray: none; stroke-linecap: butt; stroke-dashoffset: 0; stroke-linejoin: miter; stroke-miterlimit: 4; fill: rgb(255,255,255); fill-opacity: 0; fill-rule: nonzero; opacity: 1;" vector-effect="non-scaling-stroke"  transform=" translate(0, 0)" d="M 0 -28.71148 L 0 28.711489999999998" stroke-linecap="round" />
</g>
<g transform="matrix(0.82 0 0 0.82 353.84 118.25)" id="S7Sd9v59ARJCfa_-rMIhG"  >
<path style="stroke: rgb(77,30,74); stroke-width: 1; stroke-dasharray: none; stroke-linecap: butt; stroke-dashoffset: 0; stroke-linejoin: miter; stroke-miterlimit: 4; fill: rgb(255,255,255); fill-opacity: 0; fill-rule: nonzero; opacity: 1;" vector-effect="non-scaling-stroke"  transform=" translate(0, 0)" d="M 0 -28.71148 L 0 28.711489999999998" stroke-linecap="round" />
</g>
<g transform="matrix(0.29 0 0 0.29 323.7 125.72)" id="oOi5SSiOh69wkT4QZoUuf"  >
<path style="stroke: rgb(77,30,74); stroke-width: 1; stroke-dasharray: none; stroke-linecap: butt; stroke-dashoffset: 0; stroke-linejoin: miter; stroke-miterlimit: 4; fill: rgb(255,255,255); fill-opacity: 0; fill-rule: nonzero; opacity: 1;" vector-effect="non-scaling-stroke"  transform=" translate(0, 0)" d="M 0 -28.71148 L 0 28.711489999999998" stroke-linecap="round" />
</g>
<g transform="matrix(0.28 0 0 0.28 132.23 117.84)" id="PHCM9Si2dJOK4xXxgDNjg"  >
<path style="stroke: rgb(77,30,74); stroke-width: 1; stroke-dasharray: none; stroke-linecap: butt; stroke-dashoffset: 0; stroke-linejoin: miter; stroke-miterlimit: 4; fill: rgb(255,255,255); fill-opacity: 0; fill-rule: nonzero; opacity: 1;" vector-effect="non-scaling-stroke"  transform=" translate(0, 0)" d="M 0 -28.71148 L 0 28.711489999999998" stroke-linecap="round" />
</g>
<g transform="matrix(0.28 0 0 0.28 324.25 33.59)" id="J7mQtc71VAwJvXMWPdnKO"  >
<path style="stroke: rgb(77,30,74); stroke-width: 1; stroke-dasharray: none; stroke-linecap: butt; stroke-dashoffset: 0; stroke-linejoin: miter; stroke-miterlimit: 4; fill: rgb(255,255,255); fill-opacity: 0; fill-rule: nonzero; opacity: 1;" vector-effect="non-scaling-stroke"  transform=" translate(0, 0)" d="M 0 -28.71148 L 0 28.711489999999998" stroke-linecap="round" />
</g>
<g transform="matrix(0.34 0 0 0.34 174.24 190.01)" id="HMhFQzH3aPtYQjXZ8CzvS"  >
<path style="stroke: rgb(77,30,74); stroke-width: 1; stroke-dasharray: none; stroke-linecap: butt; stroke-dashoffset: 0; stroke-linejoin: miter; stroke-miterlimit: 4; fill: rgb(255,255,255); fill-opacity: 0; fill-rule: nonzero; opacity: 1;" vector-effect="non-scaling-stroke"  transform=" translate(0, 0)" d="M 0 -28.71148 L 0 28.711489999999998" stroke-linecap="round" />
</g>
<g transform="matrix(0.91 0 0 0.91 161.59 280.28)" id="QbEfHC3DCADwCwyEvbAzz"  >
<path style="stroke: rgb(77,30,74); stroke-width: 1; stroke-dasharray: none; stroke-linecap: butt; stroke-dashoffset: 0; stroke-linejoin: miter; stroke-miterlimit: 4; fill: rgb(255,255,255); fill-opacity: 0; fill-rule: nonzero; opacity: 1;" vector-effect="non-scaling-stroke"  transform=" translate(0, 0)" d="M 0 -28.71148 L 0 28.711489999999998" stroke-linecap="round" />
</g>
<g transform="matrix(0.33 0 0 0.33 189.02 280.28)" id="qb9_ZpE7B9e_txFStP3-Y"  >
<path style="stroke: rgb(77,30,74); stroke-width: 1; stroke-dasharray: none; stroke-linecap: butt; stroke-dashoffset: 0; stroke-linejoin: miter; stroke-miterlimit: 4; fill: rgb(255,255,255); fill-opacity: 0; fill-rule: nonzero; opacity: 1;" vector-effect="non-scaling-stroke"  transform=" translate(0, 0)" d="M 0 -28.71148 L 0 28.711489999999998" stroke-linecap="round" />
</g>
<g transform="matrix(0.38 0 0 0.38 166.36 334.36)" id="QDtoidXAa86JDzR0axoFT"  >
<path style="stroke: rgb(77,30,74); stroke-width: 1; stroke-dasharray: none; stroke-linecap: butt; stroke-dashoffset: 0; stroke-linejoin: miter; stroke-miterlimit: 4; fill: rgb(255,255,255); fill-opacity: 0; fill-rule: nonzero; opacity: 1;" vector-effect="non-scaling-stroke"  transform=" translate(0, 0)" d="M 0 -28.71148 L 0 28.711489999999998" stroke-linecap="round" />
</g>
<g transform="matrix(0.56 0 0 0.56 154.55 354.78)" id="3opSDsAarn3sRVWrmnbXp"  >
<path style="stroke: rgb(77,30,74); stroke-width: 1; stroke-dasharray: none; stroke-linecap: butt; stroke-dashoffset: 0; stroke-linejoin: miter; stroke-miterlimit: 4; fill: rgb(255,255,255); fill-opacity: 0; fill-rule: nonzero; opacity: 1;" vector-effect="non-scaling-stroke"  transform=" translate(0, 0)" d="M 0 -28.71148 L 0 28.711489999999998" stroke-linecap="round" />
</g>
<g transform="matrix(0.56 0 0 0.56 324.25 206.55)" id="6qaCndfr4449ENePThLi4"  >
<path style="stroke: rgb(77,30,74); stroke-width: 1; stroke-dasharray: none; stroke-linecap: butt; stroke-dashoffset: 0; stroke-linejoin: miter; stroke-miterlimit: 4; fill: rgb(255,255,255); fill-opacity: 0; fill-rule: nonzero; opacity: 1;" vector-effect="non-scaling-stroke"  transform=" translate(0, 0)" d="M 0 -28.71148 L 0 28.711489999999998" stroke-linecap="round" />
</g>
<g transform="matrix(-0.36 0 0 0.36 336.53 223.13)" id="18a-O9CinxHvIUH4c0ufJ"  >
<path style="stroke: rgb(77,30,74); stroke-width: 1; stroke-dasharray: none; stroke-linecap: butt; stroke-dashoffset: 0; stroke-linejoin: miter; stroke-miterlimit: 4; fill: rgb(255,255,255); fill-opacity: 0; fill-rule: nonzero; opacity: 1;" vector-effect="non-scaling-stroke"  transform=" translate(0, 0)" d="M 0 -28.71148 L 0 28.711489999999998" stroke-linecap="round" />
</g>
<g transform="matrix(-0.71 0 0 0.71 345.61 340.82)" id="3PCiyDzq4Qzv2kQAv0cUH"  >
<path style="stroke: rgb(77,30,74); stroke-width: 1; stroke-dasharray: none; stroke-linecap: butt; stroke-dashoffset: 0; stroke-linejoin: miter; stroke-miterlimit: 4; fill: rgb(255,255,255); fill-opacity: 0; fill-rule: nonzero; opacity: 1;" vector-effect="non-scaling-stroke"  transform=" translate(0, 0)" d="M 0 -28.71148 L 0 28.711489999999998" stroke-linecap="round" />
</g>
<g transform="matrix(-0.36 0 0 0.36 373.72 364.75)" id="wYQnl6Sry13YXHHGeUbng"  >
<path style="stroke: rgb(77,30,74); stroke-width: 1; stroke-dasharray: none; stroke-linecap: butt; stroke-dashoffset: 0; stroke-linejoin: miter; stroke-miterlimit: 4; fill: rgb(255,255,255); fill-opacity: 0; fill-rule: nonzero; opacity: 1;" vector-effect="non-scaling-stroke"  transform=" translate(0, 0)" d="M 0 -28.71148 L 0 28.711489999999998" stroke-linecap="round" />
</g>
<g transform="matrix(0.22 0 0 0.22 254.72 118.95)" id="NpjLWtDcf_twNeu8w0vqi"  >
<path style="stroke: rgb(77,30,74); stroke-width: 1; stroke-dasharray: none; stroke-linecap: butt; stroke-dashoffset: 0; stroke-linejoin: miter; stroke-miterlimit: 4; fill: rgb(255,255,255); fill-opacity: 0; fill-rule: nonzero; opacity: 1;" vector-effect="non-scaling-stroke"  transform=" translate(0, 0)" d="M 0 -28.71148 L 0 28.711489999999998" stroke-linecap="round" />
</g>
<g transform="matrix(0.18 0 0 0.18 254.72 134.37)" id="vQyvkoMfpkgJLsAYEnFnp"  >
<path style="stroke: rgb(77,30,74); stroke-width: 1; stroke-dasharray: none; stroke-linecap: butt; stroke-dashoffset: 0; stroke-linejoin: miter; stroke-miterlimit: 4; fill: rgb(255,255,255); fill-opacity: 0; fill-rule: nonzero; opacity: 1;" vector-effect="non-scaling-stroke"  transform=" translate(0, 0)" d="M 0 -28.71148 L 0 28.711489999999998" stroke-linecap="round" />
</g>
<g transform="matrix(0.32 0 0 0.32 254.72 344.87)" id="eLwMIJ-Th9e3-_UJ86xaf"  >
<path style="stroke: rgb(77,30,74); stroke-width: 1; stroke-dasharray: none; stroke-linecap: butt; stroke-dashoffset: 0; stroke-linejoin: miter; stroke-miterlimit: 4; fill: rgb(255,255,255); fill-opacity: 0; fill-rule: nonzero; opacity: 1;" vector-effect="non-scaling-stroke"  transform=" translate(0, 0)" d="M 0 -28.71148 L 0 28.711489999999998" stroke-linecap="round" />
</g>
<g transform="matrix(0.1 0 0 0.1 161.52 161.12)" id="FIsYsWNkdmyy50arsghLs"  >
<path style="stroke: rgb(77,30,74); stroke-width: 1; stroke-dasharray: none; stroke-linecap: butt; stroke-dashoffset: 0; stroke-linejoin: miter; stroke-miterlimit: 4; fill: none; fill-rule: nonzero; opacity: 1;" vector-effect="non-scaling-stroke"  transform=" translate(-47.55, -45.23)" d="M 47.55283 0 L 61.65968 30.58359 L 95.10566 34.54915 L 70.37819 57.41641 L 76.94210000000001 90.45085 L 47.55284000000001 74 L 18.16358000000001 90.45085 L 24.72749000000001 57.416410000000006 L 0.000020000000009900987 34.549150000000004 L 33.44600000000001 30.583590000000004 z" stroke-linecap="round" />
</g>
<g transform="matrix(0.1 0 0 0.1 328.36 71.81)" id="5K_utDoDvhZ6XiavHRQlk"  >
<path style="stroke: rgb(77,30,74); stroke-width: 1; stroke-dasharray: none; stroke-linecap: butt; stroke-dashoffset: 0; stroke-linejoin: miter; stroke-miterlimit: 4; fill: none; fill-rule: nonzero; opacity: 1;" vector-effect="non-scaling-stroke"  transform=" translate(-47.55, -45.23)" d="M 47.55283 0 L 61.65968 30.58359 L 95.10566 34.54915 L 70.37819 57.41641 L 76.94210000000001 90.45085 L 47.55284000000001 74 L 18.16358000000001 90.45085 L 24.72749000000001 57.416410000000006 L 0.000020000000009900987 34.549150000000004 L 33.44600000000001 30.583590000000004 z" stroke-linecap="round" />
</g>
<g transform="matrix(0.1 0 0 0.1 323.7 280.28)" id="NGjjAZ0hLw6hlDcmpUjO4"  >
<path style="stroke: rgb(77,30,74); stroke-width: 1; stroke-dasharray: none; stroke-linecap: butt; stroke-dashoffset: 0; stroke-linejoin: miter; stroke-miterlimit: 4; fill: none; fill-rule: nonzero; opacity: 1;" vector-effect="non-scaling-stroke"  transform=" translate(-47.55, -45.23)" d="M 47.55283 0 L 61.65968 30.58359 L 95.10566 34.54915 L 70.37819 57.41641 L 76.94210000000001 90.45085 L 47.55284000000001 74 L 18.16358000000001 90.45085 L 24.72749000000001 57.416410000000006 L 0.000020000000009900987 34.549150000000004 L 33.44600000000001 30.583590000000004 z" stroke-linecap="round" />
</g>
<g transform="matrix(0.05 0 0 0.05 357.04 73.27)" id="mG8ZaSdO8w9c0sOqAbGl-"  >
<path style="stroke: rgb(77,30,74); stroke-width: 1; stroke-dasharray: none; stroke-linecap: butt; stroke-dashoffset: 0; stroke-linejoin: miter; stroke-miterlimit: 4; fill: rgb(255,131,121); fill-rule: nonzero; opacity: 1;" vector-effect="non-scaling-stroke"  transform=" translate(0, 0)" d="M 0 -50 C 27.6 -50 50 -27.6 50 0 C 50 27.6 27.6 50 0 50 C -27.6 50 -50 27.6 -50 0 C -50 -27.6 -27.6 -50 0 -50 z" stroke-linecap="round" />
</g>
<g transform="matrix(0.04 0 0 0.04 368.03 29.64)" id="9vwianoSx6JVPzl0RCvZ1"  >
<path style="stroke: rgb(77,30,74); stroke-width: 1; stroke-dasharray: none; stroke-linecap: butt; stroke-dashoffset: 0; stroke-linejoin: miter; stroke-miterlimit: 4; fill: rgb(255,131,121); fill-rule: nonzero; opacity: 1;" vector-effect="non-scaling-stroke"  transform=" translate(0, 0)" d="M 0 -50 C 27.6 -50 50 -27.6 50 0 C 50 27.6 27.6 50 0 50 C -27.6 50 -50 27.6 -50 0 C -50 -27.6 -27.6 -50 0 -50 z" stroke-linecap="round" />
</g>
<g transform="matrix(0.04 0 0 0.04 355.84 158.7)" id="QziALWUwP4j-zNIWAtW-e"  >
<path style="stroke: rgb(77,30,74); stroke-width: 1; stroke-dasharray: none; stroke-linecap: butt; stroke-dashoffset: 0; stroke-linejoin: miter; stroke-miterlimit: 4; fill: rgb(255,131,121); fill-rule: nonzero; opacity: 1;" vector-effect="non-scaling-stroke"  transform=" translate(0, 0)" d="M 0 -50 C 27.6 -50 50 -27.6 50 0 C 50 27.6 27.6 50 0 50 C -27.6 50 -50 27.6 -50 0 C -50 -27.6 -27.6 -50 0 -50 z" stroke-linecap="round" />
</g>
<g transform="matrix(0.04 0 0 0.04 303.91 118.95)" id="J7GwbZu914o4s893XcJ4T"  >
<path style="stroke: rgb(77,30,74); stroke-width: 1; stroke-dasharray: none; stroke-linecap: butt; stroke-dashoffset: 0; stroke-linejoin: miter; stroke-miterlimit: 4; fill: rgb(255,131,121); fill-rule: nonzero; opacity: 1;" vector-effect="non-scaling-stroke"  transform=" translate(0, 0)" d="M 0 -50 C 27.6 -50 50 -27.6 50 0 C 50 27.6 27.6 50 0 50 C -27.6 50 -50 27.6 -50 0 C -50 -27.6 -27.6 -50 0 -50 z" stroke-linecap="round" />
</g>
<g transform="matrix(0.04 0 0 0.04 319.45 198.76)" id="4yQodGZnm9T6rKH3LlRAv"  >
<path style="stroke: rgb(77,30,74); stroke-width: 1; stroke-dasharray: none; stroke-linecap: butt; stroke-dashoffset: 0; stroke-linejoin: miter; stroke-miterlimit: 4; fill: rgb(255,131,121); fill-rule: nonzero; opacity: 1;" vector-effect="non-scaling-stroke"  transform=" translate(0, 0)" d="M 0 -50 C 27.6 -50 50 -27.6 50 0 C 50 27.6 27.6 50 0 50 C -27.6 50 -50 27.6 -50 0 C -50 -27.6 -27.6 -50 0 -50 z" stroke-linecap="round" />
</g>
<g transform="matrix(0.04 0 0 0.04 154 206.55)" id="rURT32wDqbnIpTheXaZ9c"  >
<path style="stroke: rgb(77,30,74); stroke-width: 1; stroke-dasharray: none; stroke-linecap: butt; stroke-dashoffset: 0; stroke-linejoin: miter; stroke-miterlimit: 4; fill: rgb(255,131,121); fill-rule: nonzero; opacity: 1;" vector-effect="non-scaling-stroke"  transform=" translate(0, 0)" d="M 0 -50 C 27.6 -50 50 -27.6 50 0 C 50 27.6 27.6 50 0 50 C -27.6 50 -50 27.6 -50 0 C -50 -27.6 -27.6 -50 0 -50 z" stroke-linecap="round" />
</g>
<g transform="matrix(0.04 0 0 0.04 165.82 120.39)" id="ipxxyo5YSy0PF_CYf255n"  >
<path style="stroke: rgb(77,30,74); stroke-width: 1; stroke-dasharray: none; stroke-linecap: butt; stroke-dashoffset: 0; stroke-linejoin: miter; stroke-miterlimit: 4; fill: rgb(255,131,121); fill-rule: nonzero; opacity: 1;" vector-effect="non-scaling-stroke"  transform=" translate(0, 0)" d="M 0 -50 C 27.6 -50 50 -27.6 50 0 C 50 27.6 27.6 50 0 50 C -27.6 50 -50 27.6 -50 0 C -50 -27.6 -27.6 -50 0 -50 z" stroke-linecap="round" />
</g>
<g transform="matrix(0.04 0 0 0.04 148.91 361.84)" id="t_-gbolY9IKE4JyJN4XtN"  >
<path style="stroke: rgb(77,30,74); stroke-width: 1; stroke-dasharray: none; stroke-linecap: butt; stroke-dashoffset: 0; stroke-linejoin: miter; stroke-miterlimit: 4; fill: rgb(255,131,121); fill-rule: nonzero; opacity: 1;" vector-effect="non-scaling-stroke"  transform=" translate(0, 0)" d="M 0 -50 C 27.6 -50 50 -27.6 50 0 C 50 27.6 27.6 50 0 50 C -27.6 50 -50 27.6 -50 0 C -50 -27.6 -27.6 -50 0 -50 z" stroke-linecap="round" />
</g>
<g transform="matrix(0.06 0 0 0.06 364.53 201.3)" id="XFjRjR-ALRD3386iZKaV3"  >
<path style="stroke: rgb(77,30,74); stroke-width: 1; stroke-dasharray: none; stroke-linecap: butt; stroke-dashoffset: 0; stroke-linejoin: miter; stroke-miterlimit: 4; fill: none; fill-rule: nonzero; opacity: 1;" vector-effect="non-scaling-stroke"  transform=" translate(0, 0)" d="M 0 -50 C 27.6 -50 50 -27.6 50 0 C 50 27.6 27.6 50 0 50 C -27.6 50 -50 27.6 -50 0 C -50 -27.6 -27.6 -50 0 -50 z" stroke-linecap="round" />
</g>
<g transform="matrix(0.07 0 0 0.07 183.1 226.77)" id="JErUMn48fLG4jEB8PoTyz"  >
<path style="stroke: rgb(77,30,74); stroke-width: 1; stroke-dasharray: none; stroke-linecap: butt; stroke-dashoffset: 0; stroke-linejoin: miter; stroke-miterlimit: 4; fill: none; fill-rule: nonzero; opacity: 1;" vector-effect="non-scaling-stroke"  transform=" translate(0, 0)" d="M 0 -50 C 27.6 -50 50 -27.6 50 0 C 50 27.6 27.6 50 0 50 C -27.6 50 -50 27.6 -50 0 C -50 -27.6 -27.6 -50 0 -50 z" stroke-linecap="round" />
</g>
<g transform="matrix(0.07 0 0 0.07 139.39 51.08)" id="en9W2SxNSU4N1jRlbzF1Q"  >
<path style="stroke: rgb(77,30,74); stroke-width: 1; stroke-dasharray: none; stroke-linecap: butt; stroke-dashoffset: 0; stroke-linejoin: miter; stroke-miterlimit: 4; fill: none; fill-rule: nonzero; opacity: 1;" vector-effect="non-scaling-stroke"  transform=" translate(0, 0)" d="M 0 -50 C 27.6 -50 50 -27.6 50 0 C 50 27.6 27.6 50 0 50 C -27.6 50 -50 27.6 -50 0 C -50 -27.6 -27.6 -50 0 -50 z" stroke-linecap="round" />
</g>
<g transform="matrix(0.73 0 0 0.73 254.47 196.21)" id="DKLFOay1xdpZuEXVVZQJe"  >
<path style="stroke: rgb(133,109,111); stroke-width: 1; stroke-dasharray: none; stroke-linecap: butt; stroke-dashoffset: 0; stroke-linejoin: miter; stroke-miterlimit: 4; fill: rgb(255,255,255); fill-opacity: 0; fill-rule: nonzero; opacity: 1;" vector-effect="non-scaling-stroke"  transform=" translate(0, 0)" d="M -81.21547 0 L 81.21547 0" stroke-linecap="round" />
</g>
<g transform="matrix(0.73 0 0 -0.73 254.83 295.99)" id="oupuh1DZubyVt25CE41cD"  >
<path style="stroke: rgb(77,30,74); stroke-width: 1; stroke-dasharray: none; stroke-linecap: butt; stroke-dashoffset: 0; stroke-linejoin: miter; stroke-miterlimit: 4; fill: rgb(255,255,255); fill-opacity: 0; fill-rule: nonzero; opacity: 1;" vector-effect="non-scaling-stroke"  transform=" translate(0, 0)" d="M -20.76447 45.22274 L -81.71547 -45.22274 L 81.71547 -45.22274 L 20.441989999999997 42.46030999999999" stroke-linecap="round" />
</g>
<g transform="matrix(0.73 0 0 -0.73 254.47 312.43)" id="Fuz1FAdg-giX79DvTv-wZ"  >
<path style="stroke: rgb(77,30,74); stroke-width: 1; stroke-dasharray: none; stroke-linecap: butt; stroke-dashoffset: 0; stroke-linejoin: miter; stroke-miterlimit: 4; fill: rgb(255,255,255); fill-opacity: 0; fill-rule: nonzero; opacity: 1;" vector-effect="non-scaling-stroke"  transform=" translate(0, 0)" d="M -13.45718 50.03869 L -81.96547 -49.03869 L 81.96547 -50.03869 L 11.404699999999991 50.03869" stroke-linecap="round" />
</g>
<g transform="matrix(0.73 0 0 0.73 254.47 213.99)" id="D74dhcyFBSTSFyM107y9o"  >
<path style="stroke: rgb(77,30,74); stroke-width: 1; stroke-dasharray: none; stroke-linecap: butt; stroke-dashoffset: 0; stroke-linejoin: miter; stroke-miterlimit: 4; fill: rgb(255,255,255); fill-opacity: 0; fill-rule: nonzero; opacity: 1;" vector-effect="non-scaling-stroke"  transform=" translate(0, 0)" d="M -13.45718 50.03869 L -81.96547 -49.03869 L 81.96547 -50.03869 L 11.404699999999991 50.03869" stroke-linecap="round" />
</g>
<g transform="matrix(0.73 0 0 0.73 255.26 184)" id="UBd78huFZkNX8P-6HNLVz"  >
<path style="stroke: rgb(77,30,74); stroke-width: 1; stroke-dasharray: none; stroke-linecap: butt; stroke-dashoffset: 0; stroke-linejoin: miter; stroke-miterlimit: 4; fill: rgb(252,245,227); fill-rule: nonzero; opacity: 1;" vector-effect="non-scaling-stroke"  transform=" translate(0, 0)" d="M 0 -54.5 C 30.084 -54.5 54.5 -30.084 54.5 0 C 54.5 30.084 30.084 54.5 0 54.5 C -30.084 54.5 -54.5 30.084 -54.5 0 C -54.5 -30.084 -30.084 -54.5 0 -54.5 z" stroke-linecap="round" />
</g>
<g transform="matrix(0.37 0.11 -0.24 0.78 227.26 175.98)" id="wVOPUmNjInkMQp65X_kcZ"  >
<path style="stroke: rgb(77,30,74); stroke-width: 1; stroke-dasharray: none; stroke-linecap: butt; stroke-dashoffset: 0; stroke-linejoin: miter; stroke-miterlimit: 4; fill: rgb(244,232,220); fill-rule: nonzero; opacity: 1;" vector-effect="non-scaling-stroke"  transform=" translate(0, 0)" d="M 0 -8.5 C 4.692 -8.5 8.5 -4.692 8.5 0 C 8.5 4.692 4.692 8.5 0 8.5 C -4.692 8.5 -8.5 4.692 -8.5 0 C -8.5 -4.692 -4.692 -8.5 0 -8.5 z" stroke-linecap="round" />
</g>
<g transform="matrix(0.17 0.19 -0.36 0.31 235.73 158.7)" id="FUzwe3jhZ7EsP-6Xst9XB"  >
<path style="stroke: rgb(77,30,74); stroke-width: 1; stroke-dasharray: none; stroke-linecap: butt; stroke-dashoffset: 0; stroke-linejoin: miter; stroke-miterlimit: 4; fill: rgb(244,232,220); fill-rule: nonzero; opacity: 1;" vector-effect="non-scaling-stroke"  transform=" translate(0, 0)" d="M 0 -8.5 C 4.692 -8.5 8.5 -4.692 8.5 0 C 8.5 4.692 4.692 8.5 0 8.5 C -4.692 8.5 -8.5 4.692 -8.5 0 C -8.5 -4.692 -4.692 -8.5 0 -8.5 z" stroke-linecap="round" />
</g>
<g transform="matrix(0.73 0 0 0.73 254.47 228.74)" id="rxg-XWi7V2tPAfBB6JPM6"  >
<path style="stroke: rgb(77,30,74); stroke-width: 1; stroke-dasharray: none; stroke-linecap: butt; stroke-dashoffset: 0; stroke-linejoin: miter; stroke-miterlimit: 4; fill: rgb(255,255,255); fill-opacity: 0; fill-rule: nonzero; opacity: 1;" vector-effect="non-scaling-stroke"  transform=" translate(0, 0)" d="M -20.76447 45.22274 L -81.71547 -45.22274 L 81.71547 -45.22274 L 20.441989999999997 42.46030999999999" stroke-linecap="round" />
</g>
<g transform="matrix(0.73 0 0 0.73 253.97 78.4)" id="8bDCGID6Cl941FME_N2lE"  >
<path style="stroke: rgb(77,30,74); stroke-width: 1; stroke-dasharray: none; stroke-linecap: butt; stroke-dashoffset: 0; stroke-linejoin: miter; stroke-miterlimit: 4; fill: rgb(77,30,74); fill-rule: nonzero; opacity: 1;" vector-effect="non-scaling-stroke"  transform=" translate(0, 0)" d="M 0 -35.5 C 19.596 -35.5 35.5 -19.596 35.5 0 C 35.5 19.596 19.596 35.5 0 35.5 C -19.596 35.5 -35.5 19.596 -35.5 0 C -35.5 -19.596 -19.596 -35.5 0 -35.5 z" stroke-linecap="round" />
</g>
<g transform="matrix(0.73 0 0 0.73 254.47 67.03)" id="uQJ_YlnYaOy1M3lKYN8Yc"  >
<path style="stroke: rgb(77,30,74); stroke-width: 1; stroke-dasharray: none; stroke-linecap: butt; stroke-dashoffset: 0; stroke-linejoin: miter; stroke-miterlimit: 4; fill: rgb(255,255,255); fill-opacity: 0; fill-rule: nonzero; opacity: 1;" vector-effect="non-scaling-stroke"  transform=" translate(0, 0)" d="M -0.4079 -57.91115 L -81.71546 57.911139999999996 L 81.71548 57.911139999999996 z" stroke-linecap="round" />
</g>
<g transform="matrix(0.76 0 0 0.76 253.97 264.99)" id="670lVuhnqWAwL-hckx9wU"  >
<path style="stroke: rgb(77,30,74); stroke-width: 1; stroke-dasharray: none; stroke-linecap: butt; stroke-dashoffset: 0; stroke-linejoin: miter; stroke-miterlimit: 4; fill: rgb(209,104,104); fill-rule: nonzero; opacity: 1;" vector-effect="non-scaling-stroke"  transform=" translate(-40, -40)" d="M 40 19.294 L 50.718 0 L 50.353 22.068 L 69.282 10.718000000000002 L 57.931999999999995 29.647 L 80 29.282 L 60.706 40 L 80 50.718 L 57.932 50.353 L 69.282 69.282 L 50.352999999999994 57.931999999999995 L 50.718 80 L 40 60.706 L 29.282 80 L 29.647 57.932 L 10.718 69.282 L 22.067999999999998 50.352999999999994 L 0 50.718 L 19.294 40 L 0 29.282 L 22.068 29.647 L 10.718000000000002 10.718 L 29.647 22.067999999999998 L 29.282 0 L 40 19.294 z" stroke-linecap="round" />
</g>
<g transform="matrix(1 0 0 1 -135.15 -35)" id="4seuveXp88vbDIHiRjK8k"  >
<path style="stroke: none; stroke-width: 1; stroke-dasharray: none; stroke-linecap: butt; stroke-dashoffset: 0; stroke-linejoin: miter; stroke-miterlimit: 4; fill: rgb(78,23,141); fill-rule: nonzero; opacity: 1;" vector-effect="non-scaling-stroke"  transform=" translate(-40, -40)" d="M 80 52.5 L 52.5 52.5 L 52.5 80 L 27.5 80 L 27.5 52.5 L 0 52.5 L 0 27.5 L 27.5 27.5 L 27.5 0 L 52.5 0 L 52.5 27.5 L 80 27.5 L 80 52.5 z" stroke-linecap="round" />
</g>
</svg>