<?xml version="1.0" encoding="UTF-8" standalone="no" ?>
<!DOCTYPE svg PUBLIC "-//W3C//DTD SVG 1.1//EN" "http://www.w3.org/Graphics/SVG/1.1/DTD/svg11.dtd">
<svg xmlns="http://www.w3.org/2000/svg" xmlns:xlink="http://www.w3.org/1999/xlink" version="1.1" width="229" height="450" viewBox="0 0 229 450" xml:space="preserve">
<desc>Created with Fabric.js 4.6.0</desc>
<defs>
</defs>
<g transform="matrix(1.02 0 0 0.99 114.04 224.77)" id="tfPNMOQX4LfR_hLdM-y92"  >
<path style="stroke: rgb(77,30,74); stroke-width: 1; stroke-dasharray: none; stroke-linecap: butt; stroke-dashoffset: 0; stroke-linejoin: miter; stroke-miterlimit: 4; fill: none; fill-rule: nonzero; opacity: 1;" vector-effect="non-scaling-stroke"  transform=" translate(0, 0)" d="M 0 -110.5 C 60.996 -110.5 110.5 -60.996 110.5 0 C 110.5 60.996 60.996 110.5 0 110.5 C -60.996 110.5 -110.5 60.996 -110.5 0 C -110.5 -60.996 -60.996 -110.5 0 -110.5 z" stroke-linecap="round" />
</g>
<g transform="matrix(0.85 0 0 0.82 114.04 225.16)" id="9aUWnJCqobhwCfXLweK8X"  >
<path style="stroke: rgb(77,30,74); stroke-width: 1; stroke-dasharray: none; stroke-linecap: butt; stroke-dashoffset: 0; stroke-linejoin: miter; stroke-miterlimit: 4; fill: none; fill-rule: nonzero; opacity: 1;" vector-effect="non-scaling-stroke"  transform=" translate(0, 0)" d="M 0 -110.5 C 60.996 -110.5 110.5 -60.996 110.5 0 C 110.5 60.996 60.996 110.5 0 110.5 C -60.996 110.5 -110.5 60.996 -110.5 0 C -110.5 -60.996 -60.996 -110.5 0 -110.5 z" stroke-linecap="round" />
</g>
<g transform="matrix(0.55 0 0 0.53 114.04 225.16)" id="O6iV6ouR9H2eh1gvlKx0L"  >
<path style="stroke: rgb(77,30,74); stroke-width: 1; stroke-dasharray: none; stroke-linecap: butt; stroke-dashoffset: 0; stroke-linejoin: miter; stroke-miterlimit: 4; fill: none; fill-rule: nonzero; opacity: 1;" vector-effect="non-scaling-stroke"  transform=" translate(0, 0)" d="M 0 -110.5 C 60.996 -110.5 110.5 -60.996 110.5 0 C 110.5 60.996 60.996 110.5 0 110.5 C -60.996 110.5 -110.5 60.996 -110.5 0 C -110.5 -60.996 -60.996 -110.5 0 -110.5 z" stroke-linecap="round" />
</g>
<g transform="matrix(0.55 0 0 0.53 114.04 225.16)" id="R9ab0fhq1hEEsWjDELiDB"  >
<path style="stroke: rgb(77,30,74); stroke-width: 1; stroke-dasharray: none; stroke-linecap: butt; stroke-dashoffset: 0; stroke-linejoin: miter; stroke-miterlimit: 4; fill: rgb(255,131,119); fill-rule: nonzero; opacity: 1;" vector-effect="non-scaling-stroke"  transform=" translate(0, 0)" d="M 0 -45 C 24.84 -45 45 -24.84 45 0 C 45 24.84 24.84 45 0 45 C -24.84 45 -45 24.84 -45 0 C -45 -24.84 -24.84 -45 0 -45 z" stroke-linecap="round" />
</g>
<g transform="matrix(0.28 0 0 0.27 205.95 207.99)" id="k1CB-VswYoprl0IgMQeYr"  >
<path style="stroke: rgb(77,30,74); stroke-width: 0; stroke-dasharray: none; stroke-linecap: butt; stroke-dashoffset: 0; stroke-linejoin: miter; stroke-miterlimit: 4; fill: rgb(77,30,74); fill-rule: nonzero; opacity: 1;" vector-effect="non-scaling-stroke"  transform=" translate(0, 0)" d="M 0 -27 C 14.904 -27 27 -14.904 27 0 C 27 14.904 14.904 27 0 27 C -14.904 27 -27 14.904 -27 0 C -27 -14.904 -14.904 -27 0 -27 z" stroke-linecap="round" />
</g>
<g transform="matrix(1.01 0 0 0.98 118.53 167.72)" id="vo4W3RpzSV0oIgv929g9q"  >
<g style="" vector-effect="non-scaling-stroke"   >
		<g transform="matrix(0.26 0 0 0.26 0 0)" id="FADWBGUCZqMfiYXT1Hcd3"  >
<path style="stroke: rgb(77,30,74); stroke-width: 0; stroke-dasharray: none; stroke-linecap: butt; stroke-dashoffset: 0; stroke-linejoin: miter; stroke-miterlimit: 4; fill: rgb(255,131,119); fill-rule: nonzero; opacity: 1;" vector-effect="non-scaling-stroke"  transform=" translate(0, 0)" d="M 0 -27 C 14.904 -27 27 -14.904 27 0 C 27 14.904 14.904 27 0 27 C -14.904 27 -27 14.904 -27 0 C -27 -14.904 -14.904 -27 0 -27 z" stroke-linecap="round" />
</g>
		<g transform="matrix(0.23 0 0 0.23 0.8 -0.8)" id="iWQB0AKxUg0QirX8Tm3wm"  >
<path style="stroke: rgb(77,30,74); stroke-width: 0; stroke-dasharray: none; stroke-linecap: butt; stroke-dashoffset: 0; stroke-linejoin: miter; stroke-miterlimit: 4; fill: rgb(77,30,74); fill-rule: nonzero; opacity: 1;" vector-effect="non-scaling-stroke"  transform=" translate(0, 0)" d="M 0 -27 C 14.904 -27 27 -14.904 27 0 C 27 14.904 14.904 27 0 27 C -14.904 27 -27 14.904 -27 0 C -27 -14.904 -14.904 -27 0 -27 z" stroke-linecap="round" />
</g>
</g>
</g>
<g transform="matrix(-0.44 0.88 -0.91 -0.43 147.03 328.45)" id="UxU8OceNnGyuiGIaNnH1r"  >
<g style="" vector-effect="non-scaling-stroke"   >
		<g transform="matrix(0.26 0 0 0.26 0 0)" id="uUm4VljwBXFlUzHQl9c9G"  >
<path style="stroke: rgb(77,30,74); stroke-width: 0; stroke-dasharray: none; stroke-linecap: butt; stroke-dashoffset: 0; stroke-linejoin: miter; stroke-miterlimit: 4; fill: rgb(255,131,119); fill-rule: nonzero; opacity: 1;" vector-effect="non-scaling-stroke"  transform=" translate(0, 0)" d="M 0 -27 C 14.904 -27 27 -14.904 27 0 C 27 14.904 14.904 27 0 27 C -14.904 27 -27 14.904 -27 0 C -27 -14.904 -14.904 -27 0 -27 z" stroke-linecap="round" />
</g>
		<g transform="matrix(0.23 0 0 0.23 0.8 -0.8)" id="N7Qw9pCy7lVoAcfEGIZsR"  >
<path style="stroke: rgb(77,30,74); stroke-width: 0; stroke-dasharray: none; stroke-linecap: butt; stroke-dashoffset: 0; stroke-linejoin: miter; stroke-miterlimit: 4; fill: rgb(77,30,74); fill-rule: nonzero; opacity: 1;" vector-effect="non-scaling-stroke"  transform=" translate(0, 0)" d="M 0 -27 C 14.904 -27 27 -14.904 27 0 C 27 14.904 14.904 27 0 27 C -14.904 27 -27 14.904 -27 0 C -27 -14.904 -14.904 -27 0 -27 z" stroke-linecap="round" />
</g>
</g>
</g>
<g transform="matrix(0.68 0 0 0.93 36.35 42.31)" id="GeGlbVRpJm0pNghcBR-QH"  >
<path style="stroke: rgb(77,30,74); stroke-width: 1; stroke-dasharray: none; stroke-linecap: butt; stroke-dashoffset: 0; stroke-linejoin: miter; stroke-miterlimit: 4; fill: rgb(255,255,255); fill-opacity: 0; fill-rule: nonzero; opacity: 1;" vector-effect="non-scaling-stroke"  transform=" translate(0, 0)" d="M 0 -28.71148 L 0 28.711489999999998" stroke-linecap="round" />
</g>
<g transform="matrix(1.02 0 0 1.39 54.12 119.51)" id="WjFrE_7cT_KHbiDjSJ_tO"  >
<path style="stroke: rgb(77,30,74); stroke-width: 1; stroke-dasharray: none; stroke-linecap: butt; stroke-dashoffset: 0; stroke-linejoin: miter; stroke-miterlimit: 4; fill: rgb(255,255,255); fill-opacity: 0; fill-rule: nonzero; opacity: 1;" vector-effect="non-scaling-stroke"  transform=" translate(0, 0)" d="M 0 -28.71148 L 0 28.711489999999998" stroke-linecap="round" />
</g>
<g transform="matrix(0.77 0 0 1.05 208.32 120.05)" id="S7Sd9v59ARJCfa_-rMIhG"  >
<path style="stroke: rgb(77,30,74); stroke-width: 1; stroke-dasharray: none; stroke-linecap: butt; stroke-dashoffset: 0; stroke-linejoin: miter; stroke-miterlimit: 4; fill: rgb(255,255,255); fill-opacity: 0; fill-rule: nonzero; opacity: 1;" vector-effect="non-scaling-stroke"  transform=" translate(0, 0)" d="M 0 -28.71148 L 0 28.711489999999998" stroke-linecap="round" />
</g>
<g transform="matrix(0.27 0 0 0.37 180.12 129.61)" id="oOi5SSiOh69wkT4QZoUuf"  >
<path style="stroke: rgb(77,30,74); stroke-width: 1; stroke-dasharray: none; stroke-linecap: butt; stroke-dashoffset: 0; stroke-linejoin: miter; stroke-miterlimit: 4; fill: rgb(255,255,255); fill-opacity: 0; fill-rule: nonzero; opacity: 1;" vector-effect="non-scaling-stroke"  transform=" translate(0, 0)" d="M 0 -28.71148 L 0 28.711489999999998" stroke-linecap="round" />
</g>
<g transform="matrix(0.27 0 0 0.37 1 119.51)" id="PHCM9Si2dJOK4xXxgDNjg"  >
<path style="stroke: rgb(77,30,74); stroke-width: 1; stroke-dasharray: none; stroke-linecap: butt; stroke-dashoffset: 0; stroke-linejoin: miter; stroke-miterlimit: 4; fill: rgb(255,255,255); fill-opacity: 0; fill-rule: nonzero; opacity: 1;" vector-effect="non-scaling-stroke"  transform=" translate(0, 0)" d="M 0 -28.71148 L 0 28.711489999999998" stroke-linecap="round" />
</g>
<g transform="matrix(0.27 0 0 0.37 180.64 11.6)" id="J7mQtc71VAwJvXMWPdnKO"  >
<path style="stroke: rgb(77,30,74); stroke-width: 1; stroke-dasharray: none; stroke-linecap: butt; stroke-dashoffset: 0; stroke-linejoin: miter; stroke-miterlimit: 4; fill: rgb(255,255,255); fill-opacity: 0; fill-rule: nonzero; opacity: 1;" vector-effect="non-scaling-stroke"  transform=" translate(0, 0)" d="M 0 -28.71148 L 0 28.711489999999998" stroke-linecap="round" />
</g>
<g transform="matrix(0.32 0 0 0.44 40.31 211.96)" id="HMhFQzH3aPtYQjXZ8CzvS"  >
<path style="stroke: rgb(77,30,74); stroke-width: 1; stroke-dasharray: none; stroke-linecap: butt; stroke-dashoffset: 0; stroke-linejoin: miter; stroke-miterlimit: 4; fill: rgb(255,255,255); fill-opacity: 0; fill-rule: nonzero; opacity: 1;" vector-effect="non-scaling-stroke"  transform=" translate(0, 0)" d="M 0 -28.71148 L 0 28.711489999999998" stroke-linecap="round" />
</g>
<g transform="matrix(0.85 0 0 1.16 28.47 327.57)" id="QbEfHC3DCADwCwyEvbAzz"  >
<path style="stroke: rgb(77,30,74); stroke-width: 1; stroke-dasharray: none; stroke-linecap: butt; stroke-dashoffset: 0; stroke-linejoin: miter; stroke-miterlimit: 4; fill: rgb(255,255,255); fill-opacity: 0; fill-rule: nonzero; opacity: 1;" vector-effect="non-scaling-stroke"  transform=" translate(0, 0)" d="M 0 -28.71148 L 0 28.711489999999998" stroke-linecap="round" />
</g>
<g transform="matrix(0.31 0 0 0.42 54.12 327.57)" id="qb9_ZpE7B9e_txFStP3-Y"  >
<path style="stroke: rgb(77,30,74); stroke-width: 1; stroke-dasharray: none; stroke-linecap: butt; stroke-dashoffset: 0; stroke-linejoin: miter; stroke-miterlimit: 4; fill: rgb(255,255,255); fill-opacity: 0; fill-rule: nonzero; opacity: 1;" vector-effect="non-scaling-stroke"  transform=" translate(0, 0)" d="M 0 -28.71148 L 0 28.711489999999998" stroke-linecap="round" />
</g>
<g transform="matrix(0.36 0 0 0.49 32.93 396.83)" id="QDtoidXAa86JDzR0axoFT"  >
<path style="stroke: rgb(77,30,74); stroke-width: 1; stroke-dasharray: none; stroke-linecap: butt; stroke-dashoffset: 0; stroke-linejoin: miter; stroke-miterlimit: 4; fill: rgb(255,255,255); fill-opacity: 0; fill-rule: nonzero; opacity: 1;" vector-effect="non-scaling-stroke"  transform=" translate(0, 0)" d="M 0 -28.71148 L 0 28.711489999999998" stroke-linecap="round" />
</g>
<g transform="matrix(0.53 0 0 0.72 21.87 422.99)" id="3opSDsAarn3sRVWrmnbXp"  >
<path style="stroke: rgb(77,30,74); stroke-width: 1; stroke-dasharray: none; stroke-linecap: butt; stroke-dashoffset: 0; stroke-linejoin: miter; stroke-miterlimit: 4; fill: rgb(255,255,255); fill-opacity: 0; fill-rule: nonzero; opacity: 1;" vector-effect="non-scaling-stroke"  transform=" translate(0, 0)" d="M 0 -28.71148 L 0 28.711489999999998" stroke-linecap="round" />
</g>
<g transform="matrix(0.52 0 0 0.71 180.64 233.14)" id="6qaCndfr4449ENePThLi4"  >
<path style="stroke: rgb(77,30,74); stroke-width: 1; stroke-dasharray: none; stroke-linecap: butt; stroke-dashoffset: 0; stroke-linejoin: miter; stroke-miterlimit: 4; fill: rgb(255,255,255); fill-opacity: 0; fill-rule: nonzero; opacity: 1;" vector-effect="non-scaling-stroke"  transform=" translate(0, 0)" d="M 0 -28.71148 L 0 28.711489999999998" stroke-linecap="round" />
</g>
<g transform="matrix(-0.34 0 0 0.46 192.13 254.37)" id="18a-O9CinxHvIUH4c0ufJ"  >
<path style="stroke: rgb(77,30,74); stroke-width: 1; stroke-dasharray: none; stroke-linecap: butt; stroke-dashoffset: 0; stroke-linejoin: miter; stroke-miterlimit: 4; fill: rgb(255,255,255); fill-opacity: 0; fill-rule: nonzero; opacity: 1;" vector-effect="non-scaling-stroke"  transform=" translate(0, 0)" d="M 0 -28.71148 L 0 28.711489999999998" stroke-linecap="round" />
</g>
<g transform="matrix(-0.67 0 0 0.91 200.62 405.11)" id="3PCiyDzq4Qzv2kQAv0cUH"  >
<path style="stroke: rgb(77,30,74); stroke-width: 1; stroke-dasharray: none; stroke-linecap: butt; stroke-dashoffset: 0; stroke-linejoin: miter; stroke-miterlimit: 4; fill: rgb(255,255,255); fill-opacity: 0; fill-rule: nonzero; opacity: 1;" vector-effect="non-scaling-stroke"  transform=" translate(0, 0)" d="M 0 -28.71148 L 0 28.711489999999998" stroke-linecap="round" />
</g>
<g transform="matrix(-0.34 0 0 0.46 226.92 435.77)" id="wYQnl6Sry13YXHHGeUbng"  >
<path style="stroke: rgb(77,30,74); stroke-width: 1; stroke-dasharray: none; stroke-linecap: butt; stroke-dashoffset: 0; stroke-linejoin: miter; stroke-miterlimit: 4; fill: rgb(255,255,255); fill-opacity: 0; fill-rule: nonzero; opacity: 1;" vector-effect="non-scaling-stroke"  transform=" translate(0, 0)" d="M 0 -28.71148 L 0 28.711489999999998" stroke-linecap="round" />
</g>
<g transform="matrix(0.2 0 0 0.27 115.58 120.93)" id="NpjLWtDcf_twNeu8w0vqi"  >
<path style="stroke: rgb(77,30,74); stroke-width: 1; stroke-dasharray: none; stroke-linecap: butt; stroke-dashoffset: 0; stroke-linejoin: miter; stroke-miterlimit: 4; fill: rgb(255,255,255); fill-opacity: 0; fill-rule: nonzero; opacity: 1;" vector-effect="non-scaling-stroke"  transform=" translate(0, 0)" d="M 0 -28.71148 L 0 28.711489999999998" stroke-linecap="round" />
</g>
<g transform="matrix(0.3 0 0 0.41 115.58 410.29)" id="eLwMIJ-Th9e3-_UJ86xaf"  >
<path style="stroke: rgb(77,30,74); stroke-width: 1; stroke-dasharray: none; stroke-linecap: butt; stroke-dashoffset: 0; stroke-linejoin: miter; stroke-miterlimit: 4; fill: rgb(255,255,255); fill-opacity: 0; fill-rule: nonzero; opacity: 1;" vector-effect="non-scaling-stroke"  transform=" translate(0, 0)" d="M 0 -28.71148 L 0 28.711489999999998" stroke-linecap="round" />
</g>
<g transform="matrix(0.1 0 0 0.11 184.49 61.8)" id="5K_utDoDvhZ6XiavHRQlk"  >
<path style="stroke: rgb(77,30,74); stroke-width: 1; stroke-dasharray: none; stroke-linecap: butt; stroke-dashoffset: 0; stroke-linejoin: miter; stroke-miterlimit: 4; fill: none; fill-rule: nonzero; opacity: 1;" vector-effect="non-scaling-stroke"  transform=" translate(-47.55, -45.23)" d="M 47.55283 0 L 61.65968 30.58359 L 95.10566 34.54915 L 70.37819 57.41641 L 76.94210000000001 90.45085 L 47.55284000000001 74 L 18.16358000000001 90.45085 L 24.72749000000001 57.416410000000006 L 0.000020000000009900987 34.549150000000004 L 33.44600000000001 30.583590000000004 z" stroke-linecap="round" />
</g>
<g transform="matrix(0.1 0 0 0.1 180.12 329.12)" id="NGjjAZ0hLw6hlDcmpUjO4"  >
<path style="stroke: rgb(77,30,74); stroke-width: 1; stroke-dasharray: none; stroke-linecap: butt; stroke-dashoffset: 0; stroke-linejoin: miter; stroke-miterlimit: 4; fill: none; fill-rule: nonzero; opacity: 1;" vector-effect="non-scaling-stroke"  transform=" translate(-47.55, -45.23)" d="M 47.55283 0 L 61.65968 30.58359 L 95.10566 34.54915 L 70.37819 57.41641 L 76.94210000000001 90.45085 L 47.55284000000001 74 L 18.16358000000001 90.45085 L 24.72749000000001 57.416410000000006 L 0.000020000000009900987 34.549150000000004 L 33.44600000000001 30.583590000000004 z" stroke-linecap="round" />
</g>
<g transform="matrix(0.04 0 0 0.04 211.31 63.32)" id="mG8ZaSdO8w9c0sOqAbGl-"  >
<path style="stroke: rgb(77,30,74); stroke-width: 1; stroke-dasharray: none; stroke-linecap: butt; stroke-dashoffset: 0; stroke-linejoin: miter; stroke-miterlimit: 4; fill: rgb(255,131,121); fill-rule: nonzero; opacity: 1;" vector-effect="non-scaling-stroke"  transform=" translate(0, 0)" d="M 0 -50 C 27.6 -50 50 -27.6 50 0 C 50 27.6 27.6 50 0 50 C -27.6 50 -50 27.6 -50 0 C -50 -27.6 -27.6 -50 0 -50 z" stroke-linecap="round" />
</g>
<g transform="matrix(0.04 0 0 0.04 219.82 12.47)" id="9vwianoSx6JVPzl0RCvZ1"  >
<path style="stroke: rgb(77,30,74); stroke-width: 1; stroke-dasharray: none; stroke-linecap: butt; stroke-dashoffset: 0; stroke-linejoin: miter; stroke-miterlimit: 4; fill: rgb(255,131,121); fill-rule: nonzero; opacity: 1;" vector-effect="non-scaling-stroke"  transform=" translate(0, 0)" d="M 0 -50 C 27.6 -50 50 -27.6 50 0 C 50 27.6 27.6 50 0 50 C -27.6 50 -50 27.6 -50 0 C -50 -27.6 -27.6 -50 0 -50 z" stroke-linecap="round" />
</g>
<g transform="matrix(0.04 0 0 0.04 217.33 164.41)" id="QziALWUwP4j-zNIWAtW-e"  >
<path style="stroke: rgb(77,30,74); stroke-width: 1; stroke-dasharray: none; stroke-linecap: butt; stroke-dashoffset: 0; stroke-linejoin: miter; stroke-miterlimit: 4; fill: rgb(255,131,121); fill-rule: nonzero; opacity: 1;" vector-effect="non-scaling-stroke"  transform=" translate(0, 0)" d="M 0 -50 C 27.6 -50 50 -27.6 50 0 C 50 27.6 27.6 50 0 50 C -27.6 50 -50 27.6 -50 0 C -50 -27.6 -27.6 -50 0 -50 z" stroke-linecap="round" />
</g>
<g transform="matrix(0.04 0 0 0.04 161.61 121.01)" id="J7GwbZu914o4s893XcJ4T"  >
<path style="stroke: rgb(77,30,74); stroke-width: 1; stroke-dasharray: none; stroke-linecap: butt; stroke-dashoffset: 0; stroke-linejoin: miter; stroke-miterlimit: 4; fill: rgb(255,131,121); fill-rule: nonzero; opacity: 1;" vector-effect="non-scaling-stroke"  transform=" translate(0, 0)" d="M 0 -50 C 27.6 -50 50 -27.6 50 0 C 50 27.6 27.6 50 0 50 C -27.6 50 -50 27.6 -50 0 C -50 -27.6 -27.6 -50 0 -50 z" stroke-linecap="round" />
</g>
<g transform="matrix(0.04 0 0 0.04 175.03 224.52)" id="4yQodGZnm9T6rKH3LlRAv"  >
<path style="stroke: rgb(77,30,74); stroke-width: 1; stroke-dasharray: none; stroke-linecap: butt; stroke-dashoffset: 0; stroke-linejoin: miter; stroke-miterlimit: 4; fill: rgb(255,131,121); fill-rule: nonzero; opacity: 1;" vector-effect="non-scaling-stroke"  transform=" translate(0, 0)" d="M 0 -50 C 27.6 -50 50 -27.6 50 0 C 50 27.6 27.6 50 0 50 C -27.6 50 -50 27.6 -50 0 C -50 -27.6 -27.6 -50 0 -50 z" stroke-linecap="round" />
</g>
<g transform="matrix(0.04 0 0 0.04 21.37 234.06)" id="rURT32wDqbnIpTheXaZ9c"  >
<path style="stroke: rgb(77,30,74); stroke-width: 1; stroke-dasharray: none; stroke-linecap: butt; stroke-dashoffset: 0; stroke-linejoin: miter; stroke-miterlimit: 4; fill: rgb(255,131,121); fill-rule: nonzero; opacity: 1;" vector-effect="non-scaling-stroke"  transform=" translate(0, 0)" d="M 0 -50 C 27.6 -50 50 -27.6 50 0 C 50 27.6 27.6 50 0 50 C -27.6 50 -50 27.6 -50 0 C -50 -27.6 -27.6 -50 0 -50 z" stroke-linecap="round" />
</g>
<g transform="matrix(0.04 0 0 0.04 32.42 123.52)" id="ipxxyo5YSy0PF_CYf255n"  >
<path style="stroke: rgb(77,30,74); stroke-width: 1; stroke-dasharray: none; stroke-linecap: butt; stroke-dashoffset: 0; stroke-linejoin: miter; stroke-miterlimit: 4; fill: rgb(255,131,121); fill-rule: nonzero; opacity: 1;" vector-effect="non-scaling-stroke"  transform=" translate(0, 0)" d="M 0 -50 C 27.6 -50 50 -27.6 50 0 C 50 27.6 27.6 50 0 50 C -27.6 50 -50 27.6 -50 0 C -50 -27.6 -27.6 -50 0 -50 z" stroke-linecap="round" />
</g>
<g transform="matrix(0.04 0 0 0.04 16.6 432.85)" id="t_-gbolY9IKE4JyJN4XtN"  >
<path style="stroke: rgb(77,30,74); stroke-width: 1; stroke-dasharray: none; stroke-linecap: butt; stroke-dashoffset: 0; stroke-linejoin: miter; stroke-miterlimit: 4; fill: rgb(255,131,121); fill-rule: nonzero; opacity: 1;" vector-effect="non-scaling-stroke"  transform=" translate(0, 0)" d="M 0 -50 C 27.6 -50 50 -27.6 50 0 C 50 27.6 27.6 50 0 50 C -27.6 50 -50 27.6 -50 0 C -50 -27.6 -27.6 -50 0 -50 z" stroke-linecap="round" />
</g>
<g transform="matrix(0.06 0 0 0.06 48.58 260.63)" id="JErUMn48fLG4jEB8PoTyz"  >
<path style="stroke: rgb(77,30,74); stroke-width: 1; stroke-dasharray: none; stroke-linecap: butt; stroke-dashoffset: 0; stroke-linejoin: miter; stroke-miterlimit: 4; fill: none; fill-rule: nonzero; opacity: 1;" vector-effect="non-scaling-stroke"  transform=" translate(0, 0)" d="M 0 -50 C 27.6 -50 50 -27.6 50 0 C 50 27.6 27.6 50 0 50 C -27.6 50 -50 27.6 -50 0 C -50 -27.6 -27.6 -50 0 -50 z" stroke-linecap="round" />
</g>
<g transform="matrix(0.06 0 0 0.08 7.69 34.01)" id="en9W2SxNSU4N1jRlbzF1Q"  >
<path style="stroke: rgb(77,30,74); stroke-width: 1; stroke-dasharray: none; stroke-linecap: butt; stroke-dashoffset: 0; stroke-linejoin: miter; stroke-miterlimit: 4; fill: none; fill-rule: nonzero; opacity: 1;" vector-effect="non-scaling-stroke"  transform=" translate(0, 0)" d="M 0 -50 C 27.6 -50 50 -27.6 50 0 C 50 27.6 27.6 50 0 50 C -27.6 50 -50 27.6 -50 0 C -50 -27.6 -27.6 -50 0 -50 z" stroke-linecap="round" />
</g>
<g transform="matrix(1 0 0 1 493.86 206.75)" id="g4084LF_SvGMZHbF-30aB"  >
<g style=" visibility: hidden;" vector-effect="non-scaling-stroke"   >
		<g transform="matrix(0.89 0 0 0.89 -102.06 -175.49)" id="QFYzg-Iez3iW1wbMwbiWr"  >
<path style="stroke: rgb(77,30,74); stroke-width: 1; stroke-dasharray: none; stroke-linecap: butt; stroke-dashoffset: 0; stroke-linejoin: miter; stroke-miterlimit: 4; fill: rgb(255,255,255); fill-opacity: 0; fill-rule: nonzero; opacity: 1;" vector-effect="non-scaling-stroke"  transform=" translate(0, 0)" d="M 0 -28.71148 L 0 28.711489999999998" stroke-linecap="round" />
</g>
		<g transform="matrix(1.34 0 0 1.34 -78.69 -101.33)" id="Rt6OgqhI9O_6Z1pNcRUMq"  >
<path style="stroke: rgb(77,30,74); stroke-width: 1; stroke-dasharray: none; stroke-linecap: butt; stroke-dashoffset: 0; stroke-linejoin: miter; stroke-miterlimit: 4; fill: rgb(255,255,255); fill-opacity: 0; fill-rule: nonzero; opacity: 1;" vector-effect="non-scaling-stroke"  transform=" translate(0, 0)" d="M 0 -28.71148 L 0 28.711489999999998" stroke-linecap="round" />
</g>
		<g transform="matrix(1.01 0 0 1.01 124.1 -100.82)" id="NBkvk2wjqcliTdmdoeb9s"  >
<path style="stroke: rgb(77,30,74); stroke-width: 1; stroke-dasharray: none; stroke-linecap: butt; stroke-dashoffset: 0; stroke-linejoin: miter; stroke-miterlimit: 4; fill: rgb(255,255,255); fill-opacity: 0; fill-rule: nonzero; opacity: 1;" vector-effect="non-scaling-stroke"  transform=" translate(0, 0)" d="M 0 -28.71148 L 0 28.711489999999998" stroke-linecap="round" />
</g>
		<g transform="matrix(0.35 0 0 0.35 87.01 -91.63)" id="b3XNpPFKMZwX3sMKZtTGZ"  >
<path style="stroke: rgb(77,30,74); stroke-width: 1; stroke-dasharray: none; stroke-linecap: butt; stroke-dashoffset: 0; stroke-linejoin: miter; stroke-miterlimit: 4; fill: rgb(255,255,255); fill-opacity: 0; fill-rule: nonzero; opacity: 1;" vector-effect="non-scaling-stroke"  transform=" translate(0, 0)" d="M 0 -28.71148 L 0 28.711489999999998" stroke-linecap="round" />
</g>
		<g transform="matrix(0.35 0 0 0.35 -148.55 -101.33)" id="TdpdwCuH-I5u7X62MkrGa"  >
<path style="stroke: rgb(77,30,74); stroke-width: 1; stroke-dasharray: none; stroke-linecap: butt; stroke-dashoffset: 0; stroke-linejoin: miter; stroke-miterlimit: 4; fill: rgb(255,255,255); fill-opacity: 0; fill-rule: nonzero; opacity: 1;" vector-effect="non-scaling-stroke"  transform=" translate(0, 0)" d="M 0 -28.71148 L 0 28.711489999999998" stroke-linecap="round" />
</g>
		<g transform="matrix(0.35 0 0 0.35 87.69 -204.99)" id="8dAfks-B3XK-EDn0lhfc2"  >
<path style="stroke: rgb(77,30,74); stroke-width: 1; stroke-dasharray: none; stroke-linecap: butt; stroke-dashoffset: 0; stroke-linejoin: miter; stroke-miterlimit: 4; fill: rgb(255,255,255); fill-opacity: 0; fill-rule: nonzero; opacity: 1;" vector-effect="non-scaling-stroke"  transform=" translate(0, 0)" d="M 0 -28.71148 L 0 28.711489999999998" stroke-linecap="round" />
</g>
		<g transform="matrix(0.42 0 0 0.42 -96.86 -12.52)" id="C0C98Wgw6h3RtBllF0ZAS"  >
<path style="stroke: rgb(77,30,74); stroke-width: 1; stroke-dasharray: none; stroke-linecap: butt; stroke-dashoffset: 0; stroke-linejoin: miter; stroke-miterlimit: 4; fill: rgb(255,255,255); fill-opacity: 0; fill-rule: nonzero; opacity: 1;" vector-effect="non-scaling-stroke"  transform=" translate(0, 0)" d="M 0 -28.71148 L 0 28.711489999999998" stroke-linecap="round" />
</g>
		<g transform="matrix(1.11 0 0 1.11 -112.42 98.53)" id="e8wH-ql-QWqQ7CZiLkLJe"  >
<path style="stroke: rgb(77,30,74); stroke-width: 1; stroke-dasharray: none; stroke-linecap: butt; stroke-dashoffset: 0; stroke-linejoin: miter; stroke-miterlimit: 4; fill: rgb(255,255,255); fill-opacity: 0; fill-rule: nonzero; opacity: 1;" vector-effect="non-scaling-stroke"  transform=" translate(0, 0)" d="M 0 -28.71148 L 0 28.711489999999998" stroke-linecap="round" />
</g>
		<g transform="matrix(0.41 0 0 0.41 -78.69 98.53)" id="IKXlpZmUHXG6x7sZQ9hiW"  >
<path style="stroke: rgb(77,30,74); stroke-width: 1; stroke-dasharray: none; stroke-linecap: butt; stroke-dashoffset: 0; stroke-linejoin: miter; stroke-miterlimit: 4; fill: rgb(255,255,255); fill-opacity: 0; fill-rule: nonzero; opacity: 1;" vector-effect="non-scaling-stroke"  transform=" translate(0, 0)" d="M 0 -28.71148 L 0 28.711489999999998" stroke-linecap="round" />
</g>
		<g transform="matrix(0.47 0 0 0.47 -106.57 165.06)" id="EjNZ7Jw3vu0t6RhAD6OiO"  >
<path style="stroke: rgb(77,30,74); stroke-width: 1; stroke-dasharray: none; stroke-linecap: butt; stroke-dashoffset: 0; stroke-linejoin: miter; stroke-miterlimit: 4; fill: rgb(255,255,255); fill-opacity: 0; fill-rule: nonzero; opacity: 1;" vector-effect="non-scaling-stroke"  transform=" translate(0, 0)" d="M 0 -28.71148 L 0 28.711489999999998" stroke-linecap="round" />
</g>
		<g transform="matrix(0.69 0 0 0.69 -121.11 190.19)" id="D8ue7-_PP4XqLXUbb25D7"  >
<path style="stroke: rgb(77,30,74); stroke-width: 1; stroke-dasharray: none; stroke-linecap: butt; stroke-dashoffset: 0; stroke-linejoin: miter; stroke-miterlimit: 4; fill: rgb(255,255,255); fill-opacity: 0; fill-rule: nonzero; opacity: 1;" vector-effect="non-scaling-stroke"  transform=" translate(0, 0)" d="M 0 -28.71148 L 0 28.711489999999998" stroke-linecap="round" />
</g>
		<g transform="matrix(0.68 0 0 0.68 87.69 7.82)" id="MVOr1fO8HqDYWpzC_tlN9"  >
<path style="stroke: rgb(77,30,74); stroke-width: 1; stroke-dasharray: none; stroke-linecap: butt; stroke-dashoffset: 0; stroke-linejoin: miter; stroke-miterlimit: 4; fill: rgb(255,255,255); fill-opacity: 0; fill-rule: nonzero; opacity: 1;" vector-effect="non-scaling-stroke"  transform=" translate(0, 0)" d="M 0 -28.71148 L 0 28.711489999999998" stroke-linecap="round" />
</g>
		<g transform="matrix(-0.45 0 0 0.45 102.8 28.22)" id="J7SHfuKtvEVMVq-UCOsuj"  >
<path style="stroke: rgb(77,30,74); stroke-width: 1; stroke-dasharray: none; stroke-linecap: butt; stroke-dashoffset: 0; stroke-linejoin: miter; stroke-miterlimit: 4; fill: rgb(255,255,255); fill-opacity: 0; fill-rule: nonzero; opacity: 1;" vector-effect="non-scaling-stroke"  transform=" translate(0, 0)" d="M 0 -28.71148 L 0 28.711489999999998" stroke-linecap="round" />
</g>
		<g transform="matrix(-0.88 0 0 0.88 113.97 173.01)" id="zqlYjE4AMehPKH6rt3u0v"  >
<path style="stroke: rgb(77,30,74); stroke-width: 1; stroke-dasharray: none; stroke-linecap: butt; stroke-dashoffset: 0; stroke-linejoin: miter; stroke-miterlimit: 4; fill: rgb(255,255,255); fill-opacity: 0; fill-rule: nonzero; opacity: 1;" vector-effect="non-scaling-stroke"  transform=" translate(0, 0)" d="M 0 -28.71148 L 0 28.711489999999998" stroke-linecap="round" />
</g>
		<g transform="matrix(-0.45 0 0 0.45 148.55 202.46)" id="02h96im10pXMpLWXj0Cpo"  >
<path style="stroke: rgb(77,30,74); stroke-width: 1; stroke-dasharray: none; stroke-linecap: butt; stroke-dashoffset: 0; stroke-linejoin: miter; stroke-miterlimit: 4; fill: rgb(255,255,255); fill-opacity: 0; fill-rule: nonzero; opacity: 1;" vector-effect="non-scaling-stroke"  transform=" translate(0, 0)" d="M 0 -28.71148 L 0 28.711489999999998" stroke-linecap="round" />
</g>
		<g transform="matrix(0.26 0 0 0.26 2.14 -99.97)" id="2ST1KxAWsma4YoxQSHUVy"  >
<path style="stroke: rgb(77,30,74); stroke-width: 1; stroke-dasharray: none; stroke-linecap: butt; stroke-dashoffset: 0; stroke-linejoin: miter; stroke-miterlimit: 4; fill: rgb(255,255,255); fill-opacity: 0; fill-rule: nonzero; opacity: 1;" vector-effect="non-scaling-stroke"  transform=" translate(0, 0)" d="M 0 -28.71148 L 0 28.711489999999998" stroke-linecap="round" />
</g>
		<g transform="matrix(0.22 0 0 0.22 2.14 -80.98)" id="y9DgQX6I1qAPTWeKp0YyR"  >
<path style="stroke: rgb(77,30,74); stroke-width: 1; stroke-dasharray: none; stroke-linecap: butt; stroke-dashoffset: 0; stroke-linejoin: miter; stroke-miterlimit: 4; fill: rgb(255,255,255); fill-opacity: 0; fill-rule: nonzero; opacity: 1;" vector-effect="non-scaling-stroke"  transform=" translate(0, 0)" d="M 0 -28.71148 L 0 28.711489999999998" stroke-linecap="round" />
</g>
		<g transform="matrix(0.39 0 0 0.39 2.14 177.99)" id="Ix5qa03b-twihNQUdGN_Q"  >
<path style="stroke: rgb(77,30,74); stroke-width: 1; stroke-dasharray: none; stroke-linecap: butt; stroke-dashoffset: 0; stroke-linejoin: miter; stroke-miterlimit: 4; fill: rgb(255,255,255); fill-opacity: 0; fill-rule: nonzero; opacity: 1;" vector-effect="non-scaling-stroke"  transform=" translate(0, 0)" d="M 0 -28.71148 L 0 28.711489999999998" stroke-linecap="round" />
</g>
		<g transform="matrix(0.13 0 0 0.13 -112.52 -48.08)" id="P3fKU7XQMqpfvG0fLuvoV"  >
<path style="stroke: rgb(77,30,74); stroke-width: 1; stroke-dasharray: none; stroke-linecap: butt; stroke-dashoffset: 0; stroke-linejoin: miter; stroke-miterlimit: 4; fill: none; fill-rule: nonzero; opacity: 1;" vector-effect="non-scaling-stroke"  transform=" translate(-47.55, -45.23)" d="M 47.55283 0 L 61.65968 30.58359 L 95.10566 34.54915 L 70.37819 57.41641 L 76.94210000000001 90.45085 L 47.55284000000001 74 L 18.16358000000001 90.45085 L 24.72749000000001 57.416410000000006 L 0.000020000000009900987 34.549150000000004 L 33.44600000000001 30.583590000000004 z" stroke-linecap="round" />
</g>
		<g transform="matrix(0.13 0 0 0.13 92.75 -157.96)" id="3ExGRIRT-aeMPuDFfHIrf"  >
<path style="stroke: rgb(77,30,74); stroke-width: 1; stroke-dasharray: none; stroke-linecap: butt; stroke-dashoffset: 0; stroke-linejoin: miter; stroke-miterlimit: 4; fill: none; fill-rule: nonzero; opacity: 1;" vector-effect="non-scaling-stroke"  transform=" translate(-47.55, -45.23)" d="M 47.55283 0 L 61.65968 30.58359 L 95.10566 34.54915 L 70.37819 57.41641 L 76.94210000000001 90.45085 L 47.55284000000001 74 L 18.16358000000001 90.45085 L 24.72749000000001 57.416410000000006 L 0.000020000000009900987 34.549150000000004 L 33.44600000000001 30.583590000000004 z" stroke-linecap="round" />
</g>
		<g transform="matrix(0.13 0 0 0.13 87.01 98.53)" id="eGKMnWSAKJxZeiCzv6uYV"  >
<path style="stroke: rgb(77,30,74); stroke-width: 1; stroke-dasharray: none; stroke-linecap: butt; stroke-dashoffset: 0; stroke-linejoin: miter; stroke-miterlimit: 4; fill: none; fill-rule: nonzero; opacity: 1;" vector-effect="non-scaling-stroke"  transform=" translate(-47.55, -45.23)" d="M 47.55283 0 L 61.65968 30.58359 L 95.10566 34.54915 L 70.37819 57.41641 L 76.94210000000001 90.45085 L 47.55284000000001 74 L 18.16358000000001 90.45085 L 24.72749000000001 57.416410000000006 L 0.000020000000009900987 34.549150000000004 L 33.44600000000001 30.583590000000004 z" stroke-linecap="round" />
</g>
		<g transform="matrix(0.05 0 0 0.05 128.03 -156.16)" id="_F8sLFPaJ3w-SlbdiCSdR"  >
<path style="stroke: rgb(77,30,74); stroke-width: 1; stroke-dasharray: none; stroke-linecap: butt; stroke-dashoffset: 0; stroke-linejoin: miter; stroke-miterlimit: 4; fill: rgb(255,131,121); fill-rule: nonzero; opacity: 1;" vector-effect="non-scaling-stroke"  transform=" translate(0, 0)" d="M 0 -50 C 27.6 -50 50 -27.6 50 0 C 50 27.6 27.6 50 0 50 C -27.6 50 -50 27.6 -50 0 C -50 -27.6 -27.6 -50 0 -50 z" stroke-linecap="round" />
</g>
		<g transform="matrix(0.05 0 0 0.05 141.56 -209.85)" id="A4jyG_Xd4P3OyhQEefqCE"  >
<path style="stroke: rgb(77,30,74); stroke-width: 1; stroke-dasharray: none; stroke-linecap: butt; stroke-dashoffset: 0; stroke-linejoin: miter; stroke-miterlimit: 4; fill: rgb(255,131,121); fill-rule: nonzero; opacity: 1;" vector-effect="non-scaling-stroke"  transform=" translate(0, 0)" d="M 0 -50 C 27.6 -50 50 -27.6 50 0 C 50 27.6 27.6 50 0 50 C -27.6 50 -50 27.6 -50 0 C -50 -27.6 -27.6 -50 0 -50 z" stroke-linecap="round" />
</g>
		<g transform="matrix(0.05 0 0 0.05 126.56 -51.06)" id="H53AVTuwtVkIPI_rrLpU8"  >
<path style="stroke: rgb(77,30,74); stroke-width: 1; stroke-dasharray: none; stroke-linecap: butt; stroke-dashoffset: 0; stroke-linejoin: miter; stroke-miterlimit: 4; fill: rgb(255,131,121); fill-rule: nonzero; opacity: 1;" vector-effect="non-scaling-stroke"  transform=" translate(0, 0)" d="M 0 -50 C 27.6 -50 50 -27.6 50 0 C 50 27.6 27.6 50 0 50 C -27.6 50 -50 27.6 -50 0 C -50 -27.6 -27.6 -50 0 -50 z" stroke-linecap="round" />
</g>
		<g transform="matrix(0.05 0 0 0.05 62.67 -99.97)" id="fwE0GA3MbKEWNF8DWGMt9"  >
<path style="stroke: rgb(77,30,74); stroke-width: 1; stroke-dasharray: none; stroke-linecap: butt; stroke-dashoffset: 0; stroke-linejoin: miter; stroke-miterlimit: 4; fill: rgb(255,131,121); fill-rule: nonzero; opacity: 1;" vector-effect="non-scaling-stroke"  transform=" translate(0, 0)" d="M 0 -50 C 27.6 -50 50 -27.6 50 0 C 50 27.6 27.6 50 0 50 C -27.6 50 -50 27.6 -50 0 C -50 -27.6 -27.6 -50 0 -50 z" stroke-linecap="round" />
</g>
		<g transform="matrix(0.05 0 0 0.05 81.78 -1.78)" id="iVjsuqkHBQjSVZSzVQvaT"  >
<path style="stroke: rgb(77,30,74); stroke-width: 1; stroke-dasharray: none; stroke-linecap: butt; stroke-dashoffset: 0; stroke-linejoin: miter; stroke-miterlimit: 4; fill: rgb(255,131,121); fill-rule: nonzero; opacity: 1;" vector-effect="non-scaling-stroke"  transform=" translate(0, 0)" d="M 0 -50 C 27.6 -50 50 -27.6 50 0 C 50 27.6 27.6 50 0 50 C -27.6 50 -50 27.6 -50 0 C -50 -27.6 -27.6 -50 0 -50 z" stroke-linecap="round" />
</g>
		<g transform="matrix(0.05 0 0 0.05 -121.78 7.82)" id="8X5lSDCHPFFSFwv8JNGj3"  >
<path style="stroke: rgb(77,30,74); stroke-width: 1; stroke-dasharray: none; stroke-linecap: butt; stroke-dashoffset: 0; stroke-linejoin: miter; stroke-miterlimit: 4; fill: rgb(255,131,121); fill-rule: nonzero; opacity: 1;" vector-effect="non-scaling-stroke"  transform=" translate(0, 0)" d="M 0 -50 C 27.6 -50 50 -27.6 50 0 C 50 27.6 27.6 50 0 50 C -27.6 50 -50 27.6 -50 0 C -50 -27.6 -27.6 -50 0 -50 z" stroke-linecap="round" />
</g>
		<g transform="matrix(0.05 0 0 0.05 -107.24 -98.2)" id="htzzxmzIW-1u3qWQlPbrX"  >
<path style="stroke: rgb(77,30,74); stroke-width: 1; stroke-dasharray: none; stroke-linecap: butt; stroke-dashoffset: 0; stroke-linejoin: miter; stroke-miterlimit: 4; fill: rgb(255,131,121); fill-rule: nonzero; opacity: 1;" vector-effect="non-scaling-stroke"  transform=" translate(0, 0)" d="M 0 -50 C 27.6 -50 50 -27.6 50 0 C 50 27.6 27.6 50 0 50 C -27.6 50 -50 27.6 -50 0 C -50 -27.6 -27.6 -50 0 -50 z" stroke-linecap="round" />
</g>
		<g transform="matrix(0.05 0 0 0.05 -128.04 198.88)" id="OL2okJpYnVGzw-USKSe3-"  >
<path style="stroke: rgb(77,30,74); stroke-width: 1; stroke-dasharray: none; stroke-linecap: butt; stroke-dashoffset: 0; stroke-linejoin: miter; stroke-miterlimit: 4; fill: rgb(255,131,121); fill-rule: nonzero; opacity: 1;" vector-effect="non-scaling-stroke"  transform=" translate(0, 0)" d="M 0 -50 C 27.6 -50 50 -27.6 50 0 C 50 27.6 27.6 50 0 50 C -27.6 50 -50 27.6 -50 0 C -50 -27.6 -27.6 -50 0 -50 z" stroke-linecap="round" />
</g>
		<g transform="matrix(0.08 0 0 0.08 137.25 1.36)" id="Zwz8lYAQaL9-dn4TI48H8"  >
<path style="stroke: rgb(77,30,74); stroke-width: 1; stroke-dasharray: none; stroke-linecap: butt; stroke-dashoffset: 0; stroke-linejoin: miter; stroke-miterlimit: 4; fill: none; fill-rule: nonzero; opacity: 1;" vector-effect="non-scaling-stroke"  transform=" translate(0, 0)" d="M 0 -50 C 27.6 -50 50 -27.6 50 0 C 50 27.6 27.6 50 0 50 C -27.6 50 -50 27.6 -50 0 C -50 -27.6 -27.6 -50 0 -50 z" stroke-linecap="round" />
</g>
		<g transform="matrix(0.08 0 0 0.08 -85.98 32.7)" id="UNrM-656L9fyflDJWDc3P"  >
<path style="stroke: rgb(77,30,74); stroke-width: 1; stroke-dasharray: none; stroke-linecap: butt; stroke-dashoffset: 0; stroke-linejoin: miter; stroke-miterlimit: 4; fill: none; fill-rule: nonzero; opacity: 1;" vector-effect="non-scaling-stroke"  transform=" translate(0, 0)" d="M 0 -50 C 27.6 -50 50 -27.6 50 0 C 50 27.6 27.6 50 0 50 C -27.6 50 -50 27.6 -50 0 C -50 -27.6 -27.6 -50 0 -50 z" stroke-linecap="round" />
</g>
		<g transform="matrix(0.08 0 0 0.08 -139.75 -183.47)" id="fnV23Y2edFr_Lg3jKR-BM"  >
<path style="stroke: rgb(77,30,74); stroke-width: 1; stroke-dasharray: none; stroke-linecap: butt; stroke-dashoffset: 0; stroke-linejoin: miter; stroke-miterlimit: 4; fill: none; fill-rule: nonzero; opacity: 1;" vector-effect="non-scaling-stroke"  transform=" translate(0, 0)" d="M 0 -50 C 27.6 -50 50 -27.6 50 0 C 50 27.6 27.6 50 0 50 C -27.6 50 -50 27.6 -50 0 C -50 -27.6 -27.6 -50 0 -50 z" stroke-linecap="round" />
</g>
		<g transform="matrix(0.89 0 0 0.89 1.83 -4.91)" id="ZeQx4Qa4lz0LN4E-4MbvM"  >
<path style="stroke: rgb(133,109,111); stroke-width: 1; stroke-dasharray: none; stroke-linecap: butt; stroke-dashoffset: 0; stroke-linejoin: miter; stroke-miterlimit: 4; fill: rgb(255,255,255); fill-opacity: 0; fill-rule: nonzero; opacity: 1;" vector-effect="non-scaling-stroke"  transform=" translate(0, 0)" d="M -81.21547 0 L 81.21547 0" stroke-linecap="round" />
</g>
		<g transform="matrix(0.89 0 0 -0.89 2.28 117.85)" id="v0PDPwaDhEXmWscjCPLuf"  >
<path style="stroke: rgb(77,30,74); stroke-width: 1; stroke-dasharray: none; stroke-linecap: butt; stroke-dashoffset: 0; stroke-linejoin: miter; stroke-miterlimit: 4; fill: rgb(255,255,255); fill-opacity: 0; fill-rule: nonzero; opacity: 1;" vector-effect="non-scaling-stroke"  transform=" translate(0, 0)" d="M -20.76447 45.22274 L -81.71547 -45.22274 L 81.71547 -45.22274 L 20.441989999999997 42.46030999999999" stroke-linecap="round" />
</g>
		<g transform="matrix(0.89 0 0 -0.89 1.83 138.09)" id="kX7Ufr9ncQo_d0em-SS-5"  >
<path style="stroke: rgb(77,30,74); stroke-width: 1; stroke-dasharray: none; stroke-linecap: butt; stroke-dashoffset: 0; stroke-linejoin: miter; stroke-miterlimit: 4; fill: rgb(255,255,255); fill-opacity: 0; fill-rule: nonzero; opacity: 1;" vector-effect="non-scaling-stroke"  transform=" translate(0, 0)" d="M -13.45718 50.03869 L -81.96547 -49.03869 L 81.96547 -50.03869 L 11.404699999999991 50.03869" stroke-linecap="round" />
</g>
		<g transform="matrix(0.89 0 0 0.89 1.83 16.96)" id="g_e1Md2nK-gMLOxFHnegi"  >
<path style="stroke: rgb(77,30,74); stroke-width: 1; stroke-dasharray: none; stroke-linecap: butt; stroke-dashoffset: 0; stroke-linejoin: miter; stroke-miterlimit: 4; fill: rgb(255,255,255); fill-opacity: 0; fill-rule: nonzero; opacity: 1;" vector-effect="non-scaling-stroke"  transform=" translate(0, 0)" d="M -13.45718 50.03869 L -81.96547 -49.03869 L 81.96547 -50.03869 L 11.404699999999991 50.03869" stroke-linecap="round" />
</g>
		<g transform="matrix(0.89 0 0 0.89 2.82 -19.92)" id="As7L04hXLc8a2fnqHPFse"  >
<path style="stroke: rgb(77,30,74); stroke-width: 1; stroke-dasharray: none; stroke-linecap: butt; stroke-dashoffset: 0; stroke-linejoin: miter; stroke-miterlimit: 4; fill: rgb(252,245,227); fill-rule: nonzero; opacity: 1;" vector-effect="non-scaling-stroke"  transform=" translate(0, 0)" d="M 0 -54.5 C 30.084 -54.5 54.5 -30.084 54.5 0 C 54.5 30.084 30.084 54.5 0 54.5 C -30.084 54.5 -54.5 30.084 -54.5 0 C -54.5 -30.084 -30.084 -54.5 0 -54.5 z" stroke-linecap="round" />
</g>
		<g transform="matrix(0.45 0.14 -0.29 0.96 -31.64 -29.79)" id="9YmEVWU07ApXB0Y9wRlhl"  >
<path style="stroke: rgb(77,30,74); stroke-width: 1; stroke-dasharray: none; stroke-linecap: butt; stroke-dashoffset: 0; stroke-linejoin: miter; stroke-miterlimit: 4; fill: rgb(244,232,220); fill-rule: nonzero; opacity: 1;" vector-effect="non-scaling-stroke"  transform=" translate(0, 0)" d="M 0 -8.5 C 4.692 -8.5 8.5 -4.692 8.5 0 C 8.5 4.692 4.692 8.5 0 8.5 C -4.692 8.5 -8.5 4.692 -8.5 0 C -8.5 -4.692 -4.692 -8.5 0 -8.5 z" stroke-linecap="round" />
</g>
		<g transform="matrix(0.2 0.23 -0.45 0.39 -21.21 -51.06)" id="khErqA-YTRVuQGPrzO1Q3"  >
<path style="stroke: rgb(77,30,74); stroke-width: 1; stroke-dasharray: none; stroke-linecap: butt; stroke-dashoffset: 0; stroke-linejoin: miter; stroke-miterlimit: 4; fill: rgb(244,232,220); fill-rule: nonzero; opacity: 1;" vector-effect="non-scaling-stroke"  transform=" translate(0, 0)" d="M 0 -8.5 C 4.692 -8.5 8.5 -4.692 8.5 0 C 8.5 4.692 4.692 8.5 0 8.5 C -4.692 8.5 -8.5 4.692 -8.5 0 C -8.5 -4.692 -4.692 -8.5 0 -8.5 z" stroke-linecap="round" />
</g>
		<g transform="matrix(0.89 0 0 0.89 1.83 35.12)" id="wI9ikdKljcBisEEiUnGM1"  >
<path style="stroke: rgb(77,30,74); stroke-width: 1; stroke-dasharray: none; stroke-linecap: butt; stroke-dashoffset: 0; stroke-linejoin: miter; stroke-miterlimit: 4; fill: rgb(255,255,255); fill-opacity: 0; fill-rule: nonzero; opacity: 1;" vector-effect="non-scaling-stroke"  transform=" translate(0, 0)" d="M -20.76447 45.22274 L -81.71547 -45.22274 L 81.71547 -45.22274 L 20.441989999999997 42.46030999999999" stroke-linecap="round" />
</g>
		<g transform="matrix(0.89 0 0 0.89 1.22 -149.85)" id="X37Ave9bIzG6iz59KR1yp"  >
<path style="stroke: rgb(77,30,74); stroke-width: 1; stroke-dasharray: none; stroke-linecap: butt; stroke-dashoffset: 0; stroke-linejoin: miter; stroke-miterlimit: 4; fill: rgb(77,30,74); fill-rule: nonzero; opacity: 1;" vector-effect="non-scaling-stroke"  transform=" translate(0, 0)" d="M 0 -35.5 C 19.596 -35.5 35.5 -19.596 35.5 0 C 35.5 19.596 19.596 35.5 0 35.5 C -19.596 35.5 -35.5 19.596 -35.5 0 C -35.5 -19.596 -19.596 -35.5 0 -35.5 z" stroke-linecap="round" />
</g>
		<g transform="matrix(0.89 0 0 0.89 1.83 -163.84)" id="iVihamOnb1giTPugETMfl"  >
<path style="stroke: rgb(77,30,74); stroke-width: 1; stroke-dasharray: none; stroke-linecap: butt; stroke-dashoffset: 0; stroke-linejoin: miter; stroke-miterlimit: 4; fill: rgb(255,255,255); fill-opacity: 0; fill-rule: nonzero; opacity: 1;" vector-effect="non-scaling-stroke"  transform=" translate(0, 0)" d="M -0.4079 -57.91115 L -81.71546 57.911139999999996 L 81.71548 57.911139999999996 z" stroke-linecap="round" />
</g>
		<g transform="matrix(0.94 0 0 0.94 1.22 79.71)" id="qKCh4Gt-gWBUF-eseRobQ"  >
<path style="stroke: rgb(77,30,74); stroke-width: 1; stroke-dasharray: none; stroke-linecap: butt; stroke-dashoffset: 0; stroke-linejoin: miter; stroke-miterlimit: 4; fill: rgb(209,104,104); fill-rule: nonzero; opacity: 1;" vector-effect="non-scaling-stroke"  transform=" translate(-40, -40)" d="M 40 19.294 L 50.718 0 L 50.353 22.068 L 69.282 10.718000000000002 L 57.931999999999995 29.647 L 80 29.282 L 60.706 40 L 80 50.718 L 57.932 50.353 L 69.282 69.282 L 50.352999999999994 57.931999999999995 L 50.718 80 L 40 60.706 L 29.282 80 L 29.647 57.932 L 10.718 69.282 L 22.067999999999998 50.352999999999994 L 0 50.718 L 19.294 40 L 0 29.282 L 22.068 29.647 L 10.718000000000002 10.718 L 29.647 22.067999999999998 L 29.282 0 L 40 19.294 z" stroke-linecap="round" />
</g>
</g>
</g>
<g transform="matrix(0.06 0 0 0.06 207.82 228.32)" id="XFjRjR-ALRD3386iZKaV3"  >
<path style="stroke: rgb(77,30,74); stroke-width: 1; stroke-dasharray: none; stroke-linecap: butt; stroke-dashoffset: 0; stroke-linejoin: miter; stroke-miterlimit: 4; fill: rgb(244,232,220); fill-rule: nonzero; opacity: 1;" vector-effect="non-scaling-stroke"  transform=" translate(0, 0)" d="M 0 -50 C 27.6 -50 50 -27.6 50 0 C 50 27.6 27.6 50 0 50 C -27.6 50 -50 27.6 -50 0 C -50 -27.6 -27.6 -50 0 -50 z" stroke-linecap="round" />
</g>
</svg>