<?xml version="1.0" standalone="no"?>
<svg xmlns:xlink="http://www.w3.org/1999/xlink" id="wave" style="transform:rotate(180deg); transition: 0.3s" viewBox="0 0 1440 490" version="1.1" xmlns="http://www.w3.org/2000/svg"><defs><linearGradient id="sw-gradient-0" x1="0" x2="0" y1="1" y2="0"><stop stop-color="rgba(244, 232, 220, 1)" offset="0%"/><stop stop-color="rgba(237.106, 173.814, 110.521, 1)" offset="100%"/></linearGradient></defs><path style="transform:translate(0, 0px); opacity:1" fill="url(#sw-gradient-0)" d="M0,98L80,81.7C160,65,320,33,480,65.3C640,98,800,196,960,204.2C1120,212,1280,131,1440,81.7C1600,33,1760,16,1920,65.3C2080,114,2240,229,2400,285.8C2560,343,2720,343,2880,318.5C3040,294,3200,245,3360,212.3C3520,180,3680,163,3840,179.7C4000,196,4160,245,4320,236.8C4480,229,4640,163,4800,122.5C4960,82,5120,65,5280,49C5440,33,5600,16,5760,81.7C5920,147,6080,294,6240,343C6400,392,6560,343,6720,326.7C6880,310,7040,327,7200,326.7C7360,327,7520,310,7680,302.2C7840,294,8000,294,8160,269.5C8320,245,8480,196,8640,212.3C8800,229,8960,310,9120,285.8C9280,261,9440,131,9600,73.5C9760,16,9920,33,10080,89.8C10240,147,10400,245,10560,310.3C10720,376,10880,408,11040,392C11200,376,11360,310,11440,277.7L11520,245L11520,490L11440,490C11360,490,11200,490,11040,490C10880,490,10720,490,10560,490C10400,490,10240,490,10080,490C9920,490,9760,490,9600,490C9440,490,9280,490,9120,490C8960,490,8800,490,8640,490C8480,490,8320,490,8160,490C8000,490,7840,490,7680,490C7520,490,7360,490,7200,490C7040,490,6880,490,6720,490C6560,490,6400,490,6240,490C6080,490,5920,490,5760,490C5600,490,5440,490,5280,490C5120,490,4960,490,4800,490C4640,490,4480,490,4320,490C4160,490,4000,490,3840,490C3680,490,3520,490,3360,490C3200,490,3040,490,2880,490C2720,490,2560,490,2400,490C2240,490,2080,490,1920,490C1760,490,1600,490,1440,490C1280,490,1120,490,960,490C800,490,640,490,480,490C320,490,160,490,80,490L0,490Z"/></svg>