<?xml version="1.0" encoding="UTF-8"?>
<svg class="transition duration-300 ease-in-out delay-150" viewBox="0 0 1440 600" xmlns="http://www.w3.org/2000/svg">
<path class="transition-all duration-300 ease-in-out delay-150 path-0" transform="rotate(180 720 300)" d="m0 600v-450c108.88-19.349 217.76-38.699 308-55 90.239-16.301 161.84-29.555 256-1 94.163 28.555 210.89 98.919 298 99s144.6-70.12 236-89 216.7 13.56 342 46v450z" fill="#d23c6166" stroke-width="0"/>
<path class="transition-all duration-300 ease-in-out delay-150 path-1" transform="rotate(180 720 300)" d="m0 600v-300c99.579-7.3589 199.16-14.718 299-1s199.95 48.512 280 33 140.05-81.33 244-87 251.84 48.809 362 68 182.58 3.0957 255-13v300z" fill="#d23c6188" stroke-width="0"/>
<path class="transition-all duration-300 ease-in-out delay-150 path-2" transform="rotate(180 720 300)" d="m0 600v-150c74.517 27.502 149.03 55.005 238 50 88.967-5.0048 192.38-42.517 295-42s204.44 39.062 302 44 190.88-23.732 291-38 207.06-14.134 314-14v150z" fill="#d23c61ff" stroke-width="0"/>
</svg>
